<?xml version="1.0" encoding="utf-8"?>
<!-- Generator: Adobe Illustrator 18.1.1, SVG Export Plug-In . SVG Version: 6.00 Build 0)  -->
<svg version="1.1" id="Layer_1" xmlns="http://www.w3.org/2000/svg" xmlns:xlink="http://www.w3.org/1999/xlink" x="0px" y="0px"
	 viewBox="0 0 298.4 85.2" enable-background="new 0 0 298.4 85.2" xml:space="preserve">
<g>
	<path fill="#FFFFFF" stroke="#986633" stroke-width="2" stroke-miterlimit="10" d="M223.3,73c0,0-6.8,9-33.1,11
		c-6,0.5-10.4-0.9-10.4-0.9s-12.1-1.7-16.4-1.4c-4.3,0.3-6.5,1.8-11.9,2.4c-5.4,0.6-11.3-0.7-13.7-1.1s-4.2-1.6-9.4-2.1
		c-1.6-0.2-9.3,0.3-11.2,0.7c-2,0.4-4.7,1.4-7,1.3c-2.3-0.1-5.8-0.7-8.3-0.6c-2.4,0.1-10.2,0.6-11.6,0.4c-1.4-0.2-6.2-0.3-12.4-2.4
		c-6.2-2-10.6-5.7-10.8-11.9c-0.2-4.4,4.6-8.4,4.6-8.4s1.7-1.3,4.8-2.8c2.9-1.3,4.6-1,6.1-1.2c4.8-0.6,7.4,0.1,8.6,0.3
		c3.2,0.6,2.1,0.6,5-0.1c1.9-0.5,4.9-1.5,6.9-1.5c2.1-0.1,5.1-0.4,8,0c2.9,0.5,3.6,0.9,5.6,0.9c0.9,0,8.7-2.5,12.4-2.4
		c5,0.1,6.6,0.5,10.6,0.8s10.8-0.5,12.7-1c1.9-0.5,6.1,0.1,8.2,0.3c2.1,0.3,6.2,1.1,8.7,1.4c2.4,0.2,10.8-1.2,14.1-1.7
		s9.7-0.5,13.1-0.2c3.4,0.3,13.1,2,15.2,2.8c3.3,1.2,10.3,4,11.9,5c2.7,1.7,2.3,3.8,2.5,6.6C226.3,69.8,223.3,73,223.3,73z"/>
	<g>
		<path fill="#CB9833" d="M113.9,68.5c0.5,0.2,0.6,0.7,0.9,1c0.3,0.3,0.6,0.7,0.8,1.1c0.2,0.3,0.6,0.5,0.6,1l0,0
			c0.5,0,0.8,0.3,0.8,0.8c0.9,0.7,2,1.4,2.4,2.6c0.1,0.2,0.2,0.2,0.4,0.2c0.6,0.1,1.3,0.3,1.8,0.8c0.4,0.4,0.8,0.8,1.2,1.2
			c1,0.3,2,0.7,3.1,0.8c0.3,0,0.5,0.1,0.8,0.1c0.3,0,0.5-0.1,0.6-0.4c0.1-0.3-0.2-0.5-0.4-0.6c-1.2-0.4-2.4-0.8-3.6-1.3
			c-1.9-0.7-3.3-2.1-4.5-3.6c-1.8-2.1-3.3-4.6-5.2-6.7c-1.3-1.4-2.7-2.6-4.1-3.8c-1.4-1.1-3.2-1.8-5.3-1.7c0.2,0.6,0.4,1.1,0.4,1.7
			c-0.4,0.2-0.8-0.1-1.2-0.2c-3.1-0.9-6.2-1.8-9.4-2.4c-0.3-0.1-0.9-0.5-1,0c-0.2,0.6,0.6,0.6,1,0.6c2.8,0.7,5.7,1.4,8.5,2.2
			c0.7,0.2,1.6,0.2,2.2,0.9c-1.4,0-2.7,0.2-4,0c-1.3-0.2-2.6-0.3-3.8-0.2c-1.7,0.1-3.4-0.1-5.1-0.1c0.1,0.3,0.3,0.3,0.5,0.3
			c1.4,0.2,2.8,0.5,4.2,0.5c2.3-0.1,4.5,0.5,6.8,0.3c1,0.6,2.2,0.3,3.3,0.5c0.4,0.1,0.8,0.1,1.1-0.1c-0.2-0.5-0.6-0.2-0.8-0.3
			c-0.4-0.1-0.7-0.2-0.3-0.7c0.3-0.3,0-0.6-0.2-0.8c-0.3-0.2-0.7-0.2-0.9-0.6c0.2-0.1,0.3-0.1,0.5-0.1
			C109.3,63.1,112.1,65.2,113.9,68.5L113.9,68.5z"/>
		<path fill="#CB9833" d="M87.4,65.1c-0.2-1.1,0-1.3,1.1-1.3c1,0,2,0,3,0.2c2.9,0.5,5.9,0.5,8.8,0.9c1.4,0.2,2.8,0.2,4.1,0.5
			c1.2,0.3,2.4,0.6,3.7,0.5c0.4,0,0.8,0.1,1.2,0.2c0,0.2,0,0.5,0,0.7c-0.7,0.5-1.4,0.1-2,0c-1.1-0.2-2.2-0.2-3.2-0.4
			c-0.1,0-0.3,0-0.4,0.1c-0.7,0.3-0.1,0.5,0.1,0.7c0,0.2,0,0.4,0,0.5c-1.3,0-2.6-0.3-3.9-0.5c-2.3-0.3-4.5-0.9-6.7-1.5
			c-0.6-0.2-1.1-0.8-1.6-0.9c-1.2-0.2-2.4-0.6-3.7-0.4c-0.3,0.3-0.1,0.7-0.2,1.1C87.5,65.3,87.4,65.2,87.4,65.1z M102.3,66.4
			C102.3,66.4,102.2,66.5,102.3,66.4c0,0.2,0.1,0.2,0.3,0.2c0.1,0,0.1,0.1,0.2,0.1c0,0-0.1-0.1-0.1-0.1
			C102.6,66.5,102.5,66.4,102.3,66.4z M100.1,66.3c0.4,0.4,0.9,0.4,1.7,0.3C100.9,66.2,100.9,66.2,100.1,66.3z M93,65.1
			c0.1,0,0.2,0,0.3-0.1c0,0-0.1-0.1-0.2-0.1c-0.1,0-0.1,0.1-0.2,0.1C92.9,65.1,92.9,65.1,93,65.1z"/>
		<path fill="#CB9833" d="M209.5,70.5c0.1,0,0.2,0,0.2,0c0.1-0.1,0.2-0.2,0.2-0.3c0-0.6-0.2-1-0.7-1.4c-1-0.8-1.7-1.7-2.5-2.7
			c-1.6-2.2-3.5-4.1-6.1-5.2c-1.4-0.6-2.8-1.2-4.1-1.9c-2.5-1.3-5.2-2-7.7-3.2c-0.2-0.1-0.4-0.2-0.6-0.2c-0.6,0-0.9,0.5-1,0.9
			c-0.1,0.5,0.4,0.5,0.7,0.5c0.3,0.1,0.5,0.1,0.8,0.1c0.5,0.1,1,0.3,1.5,0.4c2.4,0.5,4.6,1.7,6.8,2.6c1,0.4,2.2,0.8,2.8,1.9l0,0
			c0.4,0,0.7,0,0.9,0.5c0.7,0.1,0.8,0.8,1.3,1.1c1.1,0.6,1.8,1.6,2.5,2.5c1,0.4,1.6,1.3,2.5,1.8C208.2,68.6,208.9,69.6,209.5,70.5z"
			/>
		<path fill="#CB9833" d="M135.4,64.7c-1.5-0.7-2.8-1.6-4.2-2.4c-0.9-0.5-1.8-1.1-2.8-1.3c-0.3,0.3,0,0.5,0,0.8
			c-0.4,0-0.8,0.1-0.8,0.6c-0.7-0.3-1.9,0-1.8-1.4c0-0.2-0.3-0.2-0.4-0.2c-0.6-0.1-1.1-0.3-1.7-0.4c-0.2-0.1-0.4-0.2-0.4-0.4
			c0-0.3,0.3-0.3,0.5-0.4c0.7-0.1,1.4,0.1,2.1,0.2c1.2,0.2,2.3,1.3,3.6,0.1c0,0,0.1,0,0.1,0c2.2-0.1,4.3,0,6.5,0.1
			c1.5,0.1,3,0.5,4.6,0.4c0.3,0.3,0.6,0.6,1.1,0.3c0.4-0.2,0.7,0.4,1.2,0.5c1.1,0.1,2.2,0.2,3.2,0.8c-0.4,0.4-0.8,0.4-1.3,0.4
			c-1,0.2-2-0.5-3.1-0.2c-0.2,0.1-0.4,0-0.3-0.3c0.1-0.7-0.4-0.6-0.9-0.8c-1.7-0.5-3.4-0.4-5.2-0.5c1.2,1.1,2.8,0.7,4.2,1.4
			c-1.5,0-3,0-4.4-0.1c-0.9-0.1-1.8-0.2-2.6-0.4c-0.3-0.1-0.7-0.1-0.2-0.5c0.1-0.1,0.1-0.2,0-0.2c-0.7,0.1-1.5-0.6-2.3,0
			c0.2,0.5,0.6,0.6,0.9,0.8c1.3,0.6,2.5,1.6,3.8,2.2C135,64,135.5,64.1,135.4,64.7L135.4,64.7z M134,60.6c-0.3,0.2-0.6,0.3-0.9,0.5
			c0.3,0.2,0.7,0.2,0.9,0c0.4-0.7,0.7,0,1,0.1c0.1,0,0.1,0.1,0.2,0.1c0,0-0.1-0.1-0.1-0.1C134.7,60.4,134.5,60.2,134,60.6z
			 M129.3,60.5c0,0.1,0,0.1,0.1,0.1c0,0,0.1-0.1,0.1-0.1c0,0-0.1,0-0.1-0.1C129.3,60.4,129.3,60.5,129.3,60.5z"/>
		<path fill="#CB9833" d="M158.3,76.1c1.4,0.4,2.6,0.6,3.7,0.5c0.8-0.1,1.5,0.2,2.3-0.1c0.1-0.1,0.2,0.4,0.2,0.6
			c-0.5,0.4-1.2,0.6-1.8,0.6c-1.6,0.1-3.2-0.1-4.8-0.1c-0.9,0-2-0.2-2.7-0.9c-0.4-0.4-0.8-0.6-1.4-0.5c-0.4,0.1-0.8,0.1-1.2-0.1
			c-1.3-0.6-2.7-1-3.8-1.8c0.3-0.1,0.5-0.2,0.8-0.2c0.3,0,0.3-0.2,0.3-0.4c0.2,0,0.4,0,0.6,0c0,0.1,0.1,0.2,0.2,0.3
			c1.6,0.9,3.5,1.2,5.2,1.8c0.3,0.1,0.7,0,0.7-0.5c0,0,0.1-0.1,0.1-0.1c0,0-0.1,0.1-0.1,0.1c-0.3,0-0.6-0.1-0.9-0.2
			c-1-0.3-1.8-1.2-2.9-1.2c-0.4,0-0.8,0-1.2,0c-0.2,0-0.6,0.1-0.6-0.4c0.5-0.3,1,0,1.5,0c0.5,0,1.1,0.1,1.6,0
			c0.7-0.2,0.7,0.8,1.3,0.7c0.5,0.4,1.1,0.3,1.6,0.3c0.6,0,0.8,0.4,1.1,0.7c0.1,0.2,0.2,0.2,0.3,0c0.2-0.5,0.6-0.6,1-0.6
			C159.7,75.4,159.4,75.9,158.3,76.1z M156.3,76.8c0.1,0,0.3,0,0.3-0.1c0,0-0.1-0.1-0.2-0.1c-0.1,0-0.3,0-0.4,0c0,0-0.1-0.1-0.1-0.1
			c0,0,0,0.1,0,0.1c0,0,0.1,0,0.1,0C156.1,76.7,156.2,76.8,156.3,76.8z"/>
		<path fill="#CB9833" d="M100.7,69.4c-0.3,0-0.6,0-0.8-0.2c-0.8-0.9-1.8-0.6-2.8-0.8c0.1-0.4,0.4-0.6,0.7-0.5
			c1,0.3,2.1,0.2,3.1,0.4c1.3,0.3,2.6,0.2,3.9,0.3c1.8,0.2,3.6,0.5,5.4,1.1c0.1,0.2,0.2,0.2,0.3,0c0.4-0.1,0.7,0.1,1.1,0.2
			c0.1,0.4-0.4,0.5-0.5,0.8c-1,0.1-2.1-0.1-3-0.3c-1.7-0.4-3.5-0.4-5.2-0.7c-0.3-0.1-0.5,0-0.7,0.3c-0.4,0-0.8,0.2-1.1-0.2
			C101.2,69.6,101,69.4,100.7,69.4z M101.8,69.7L101.8,69.7L101.8,69.7L101.8,69.7z"/>
		<path fill="#CB9833" d="M180.7,61.7c-0.3,0.3-0.7,0.2-1.1,0.3c-0.3,0-0.7,0-0.7,0.4c0,0.5,0.4,0.4,0.7,0.4c0.7,0,1.4-0.1,2.1-0.1
			c0.4,0,0.6,0.1,0.6,0.5c0,0,0.1,0.1,0.1,0.1c0.3-0.3,0.7-0.3,1.1-0.4c0,0,0-0.1,0-0.1c0.1,0,0.1,0,0.2,0.1c0.1,0,0.2,0,0.2,0
			c0.1,0,0.3,0,0.4,0c0,0,0.1,0,0.1,0c0-0.5,0.4-0.5,0.7-0.6c0.6-0.2,1.2-0.1,1.8-0.2c1.5-0.4,3-0.7,4.5-0.8
			c0.7-0.1,1.3-0.2,1.9-0.7c0.1-0.4,0.6-0.5,0.7-0.9c-0.5-0.2-0.9-0.4-1.5-0.3c0,0.2,0,0.3,0,0.5c-0.1,0.1-0.3,0.2-0.3,0.4
			c-0.2,0.4-0.4,0.7-0.8,0.2c0-0.1-0.2,0-0.4,0c-1.3,0.3-2.7,0.4-4.1,0.6C185,61.2,182.9,61.7,180.7,61.7z"/>
		<path fill="#CB9833" d="M191.5,59.4c-0.4,0-0.9,0.1-1.1-0.5c-0.2-0.4-0.7-0.4-0.9-0.1c-0.5,0.5-1.1,0.4-1.7,0.4
			c-0.2-0.1-0.3-0.2,0-0.3c0,0,0,0,0,0c-0.2-0.2-0.3-0.3-0.5-0.5c-1.1-0.4-2.2-0.5-3.4-0.4c-0.2,0-0.5,0-0.5,0.3
			c0,0.3,0.2,0.5,0.5,0.5c0.7,0,1.4-0.1,2.1-0.1c0.3,0,0.6,0.1,0.6,0.4c0,0.2-0.3,0.3-0.5,0.4c-0.7,0.1-1.3,0.1-2,0.1
			c-0.4,0-0.8-0.1-1.1,0.3c-0.1,0.2-0.2,0.2-0.3,0c-0.5,0-1,0.1-1.4,0.1c-0.5,0-0.7,0.3-0.6,0.8c1,0.1,2,0,3-0.2
			c1.6-0.3,3.1-0.6,4.7-0.7c1,0,2-0.1,3.1-0.1C191.5,59.6,191.5,59.5,191.5,59.4z"/>
		<path fill="#CB9833" d="M119.6,76.9c0.1-0.2,0.3-0.5,0.1-0.5c-0.7,0.1-1.3-0.6-2-0.3c0,0.1,0,0.1,0,0.2c0.2,0.1,0.3,0.3,0.3,0.5
			c0,0,0.1,0.1,0.1,0.1c-0.1,0-0.1-0.1-0.2-0.1c-0.2-0.1-0.2-0.3-0.3-0.5c-0.1-0.1-0.2-0.2-0.3-0.2c-0.1,0-0.2,0-0.3,0
			c0,0.4-0.1,0.9,0.4,1.2c0.6,0.3,0.5,0.8,0.5,1.3c0.2,0.1,0.5,0.2,0.7,0.3c0.2,0.1,0.5,0.3,0.7,0.1c0.3-0.3,0.3-0.6,0.1-1
			c-0.1-0.1-0.3-0.2-0.4-0.3C118.7,77.3,118.8,77.2,119.6,76.9z"/>
		<path fill="#CB9833" d="M166.4,75.3c-0.3,0-0.6,0-0.9,0c-0.4,0-0.3,0.3-0.2,0.5c0.6-0.2,1.3-0.1,1.9,0c0.5,0.1,0.9,0,1.3-0.4
			C167.8,75.6,167.1,75.3,166.4,75.3z"/>
		<path fill="#CB9833" d="M121.5,77.3c0-0.3,0-0.5,0-1.1c-0.4,0.7-1.2-0.2-1.3,0.8c0.1,0,0.2,0,0.3,0c0.1,0,0.2,0.1,0.3,0.2
			C121,77.3,121.3,77.3,121.5,77.3z"/>
		<path fill="#CB9833" d="M137.9,66.7c0,0.3,0.2,0.5,0.5,0.5c0.6,0,1.1-0.1,1.2,0.8l0,0c0.8,0,0.8,0,0.6,0.5c0.9,0.7,1.9,1.2,3,1.5
			c-0.3-0.5-0.7-0.8-1.1-1.1c-0.6-0.3-1-0.8-1.6-1.5c1.8,0.1,3.3,0.2,4.8,0.3c0.2-0.3,0.5-0.3,0.8-0.3c0.5,0.2,0.9,0.3,1.4,0.2
			c0-0.2-0.1-0.4-0.1-0.5c-2.4,0.1-4.8-0.1-7.3-0.3c-0.4,0-0.9-0.1-1.2-0.6c1.8-0.4,3.6,0.1,5.3-0.3c-1.3-0.4-2.7,0-4.1-0.2
			c-1.4-0.1-2.7-0.6-4-0.8l0,0.1c0.5,0.7,1.3,1.2,2.1,1.5c0.3,0.1,0.2,0.1,0,0.3C137.9,66.8,138,66.6,137.9,66.7z"/>
		<path fill="#CB9833" d="M146.6,64.4c-2.8-0.1-5.5-0.3-8.3-0.4c-0.4,0-0.9-0.1-1.2,0.4c3.2,0.1,6.3,0.5,9.5,0.4
			C146.7,64.6,146.6,64.5,146.6,64.4z"/>
		<path fill="#CB9833" d="M146.8,62.2c0.6,0.2,1.1,0.1,1.6-0.5C147.6,61.6,147.2,62,146.8,62.2z"/>
		<path fill="#CB9833" d="M200.4,66.6c-0.1,0.1-0.3,0.1-0.3,0.2c0.1,0.6-0.1,0.9-0.7,0.8c-0.6-0.1-1,0.3-1.6,0.4
			c0.5,0.1,1.1,0,1.6,0c0.7,0,1.4-0.1,2.1,0.2c0.3,0.1,0.4,0.3,0.4,0.6c-0.1,0.4-0.3,0.1-0.5,0.1c-0.2,0-0.6,0-0.9,0.3
			c0.3,0.7,0.9,0.8,1.6,0.8c0.8,0,1.5,0,2.3-0.1c0.7-0.1,1,0.2,1.2,0.7c0,0.1,0,0.2,0,0.3c-0.1,0-0.2,0-0.3,0.1
			c-0.4-0.2-0.7-0.3-1.1-0.5c-0.5-0.2-0.9-0.2-1.1,0.5c-1.7,0.5-3.2,0.1-4.6-0.8c0.5,0,1.1,0.1,1.7-0.2c-0.3-0.4-0.5-0.6-0.9-0.7
			c-1-0.3-2.2-0.2-2.8-1.4c-1-0.1-1.5-1.1-2.5-1.1c-0.3,0-0.8,0-1.2-0.4c0.8-0.2-0.3-1.1,0.6-1.3c0.6-0.1,1.2-0.1,1.7,0.4
			c-0.3,0.1-0.8,0-1,0.5c0.7,0.3,1.3,0.4,2,0.4c1.5-0.1,2.9-0.1,4.4-0.2C200.4,66.3,200.4,66.5,200.4,66.6z M199.5,67.2
			c-0.6-0.5-2.5-0.6-3.8-0.1C197.1,67.7,198.3,67.1,199.5,67.2z"/>
		<path fill="#CB9833" d="M193.5,60.6c0.1,0.2,0.1,0.5,0.4,0.4c0.5-0.1,0.7,0.3,1,0.5c0.3,0,0.5-0.2,0.5-0.6l0,0
			C194.9,60.4,194.2,60.5,193.5,60.6z"/>
		<path fill="#CB9833" d="M195.4,61c0.7-0.1,1.4,0.4,2.2-0.2c-0.7-0.1-1.2-0.2-1.8-0.2C195.5,60.5,195.4,60.8,195.4,61L195.4,61z"/>
		<path fill="#CB9833" d="M163.5,76.2c-0.4-0.8-0.7-0.9-3.5-0.4C161.1,75.9,162.3,76.1,163.5,76.2z"/>
		<path fill="#CB9833" d="M188.5,62.7c-0.2,0.8-0.8,0.5-1.3,0.5c-0.5,0-0.8,0.1-0.8,0.6c0.6,0.1,1.2-0.1,1.8,0.2
			c0.3,0.1,0.6-0.1,0.9-0.2c0-0.1-0.1-0.2-0.1-0.4c0.8,0,1.3-1.1,2.3-0.6c0.3,0.1,0.8,0.1,1.1-0.2C191.3,61.8,190.4,61.9,188.5,62.7
			z"/>
	</g>
	<path fill="#FBFBFB" d="M152.6,61.7c0.4,0.1,0.8,0,1.2,0c0.4,0.2,0.9,0.4,1.3,0.6c0,0.3,0.2,0.4,0.4,0.4c3.6,1.3,6.5,3.7,9.1,6.4
		c0.6,0.6,1.4,1.2,1.5,2.2c-0.2,0-0.6,0-0.5,0.2c0,0.5,0.5,0.3,0.8,0.4c0.9,1,1.5,2.2,2.1,3.3c0,0.1,0,0.2,0,0.3l0,0
		c-0.7,0.1-1.4-0.2-2.1-0.2c0-0.7-0.1-1.1-1-1c-0.3,0-0.7-0.1-1-0.1c-0.3,0.4-0.1,0.8-0.2,1.2c-0.2,0-0.4,0-0.5,0
		c-0.1-0.9-0.1-0.9-0.9-0.7c-0.8,0.2-2.3,0.1-3.2-0.1c-0.4,0-0.8,0.1-1,0.6c-0.1,0-0.2,0-0.3,0c-0.3-0.3-0.5-0.8-1.1-0.7
		c0.3-0.4,0.7-0.3,1.1-0.3c0.2,0,0.4-0.1,0.4-0.3c0-0.3-0.2-0.4-0.4-0.4c-0.7-0.1-1.5,0-2.2,0.1c-0.3,0.1-0.9-0.2-0.5,0.6
		c0,0.1,0,0.1,0,0.2c-0.6,0.1-0.6-0.9-1.3-0.7c-0.5,0.1-1.1,0.1-1.6,0c-0.5,0-1-0.4-1.5,0c0,0.4,0.3,0.3,0.6,0.4c0.4,0,0.8,0,1.2,0
		c1.1,0,1.9,0.8,2.9,1.2c0.3,0.1,0.5,0.2,0.9,0.2l0,0c0,0.5-0.4,0.6-0.7,0.5c-1.7-0.7-3.6-0.9-5.2-1.8c-0.1-0.1-0.2-0.2-0.2-0.3
		c-0.2,0-0.4,0-0.6,0c-1.9-0.8-3.9-1.5-5.5-2.9c-0.4-0.3-0.9-0.6-1.3-0.8c-0.3-0.5-0.7-0.8-1.1-1.1c-0.6-0.3-1-0.8-1.6-1.5
		c1.8,0.1,3.3,0.2,4.8,0.3c0.3,0,0.6,0,0.8-0.3c0.5,0.2,0.9,0.3,1.4,0.2c1.1,0.1,2.2,0.6,3.4,0.3c0-1.1-0.1-1.2-1-0.8
		c-0.2,0.1-0.3,0.4-0.5,0.2c-0.6-0.5-1.3-0.2-2-0.2c-2.4,0.1-4.8-0.1-7.3-0.3c-0.4,0-0.9-0.1-1.2-0.6c1.8-0.4,3.6,0.1,5.3-0.3
		c-1.3-0.4-2.7,0-4.1-0.2c-1.4-0.1-2.7-0.6-4-0.8c-0.1-0.2-0.3-0.2-0.6-0.2c0-0.5-0.4-0.7-0.7-0.8c-1.3-0.7-2.5-1.6-3.8-2.2
		c-0.3-0.2-0.7-0.3-0.9-0.8c0.8-0.5,1.5,0.2,2.3,0c0.1,0,0.1,0.1,0,0.2c-0.5,0.4-0.1,0.5,0.2,0.5c0.9,0.2,1.7,0.3,2.6,0.4
		c1.5,0.1,2.9,0.2,4.4,0.1c-1.3-0.7-3-0.3-4.2-1.4c1.7,0.1,3.5-0.1,5.2,0.5c0.4,0.1,0.9,0.1,0.9,0.8c0,0.2,0.2,0.3,0.3,0.3
		c1-0.3,2,0.4,3.1,0.2c0.5-0.1,0.9-0.1,1.3-0.4c-1-0.6-2.1-0.7-3.2-0.8c-0.5,0-0.9-0.6-1.2-0.5c-0.6,0.3-0.8,0-1.1-0.3
		c0.3-0.4,0.8-0.2,1.2-0.3c1.4-0.2,2.9,0.1,4.3,0.1c1.2,0,2.4,0.3,3.7,0.2c0.4,0,0.9,0.1,1.2,0.4C151.2,61.6,152,61.6,152.6,61.7z
		 M155.9,65.5c0,0,0.1-0.1,0.1-0.1c0,0,0.1-0.1,0.1-0.1c0,0-0.1,0.1-0.1,0.1C156,65.4,156,65.5,155.9,65.5z M138.4,64
		c-0.4,0-0.9-0.1-1.2,0.4c3.2,0.1,6.3,0.5,9.5,0.4c0,0,0.1,0.1,0.1,0.1c0.4,0.1,0.6-0.1,0.8-0.3c0.1-0.1,0.1-0.3-0.1-0.3
		c-0.3-0.1-0.6-0.1-0.8,0.2C143.9,64.3,141.1,64.1,138.4,64z M148.9,71.4c1,0.2,2,0.5,2.9,0.7c0.5,0.1,1,0.3,1.2-0.3
		c0.1-0.1,0.1-0.1,0.3,0c0.9,0.7,1.9,0.9,3,0.3c0.8,0.6,1.8-0.3,2.5,0.3c0.1,0.1,0.4,0.1,0.5-0.1c0.1-0.2-0.1-0.7,0.3-0.6
		c0.6,0.1,1.2-0.2,1.8-0.1c1.1,0.3,2.3,0.1,3.4,0c0-0.4-0.3-0.5-0.6-0.5c-1.2,0-2.3,0-3.5-0.5c-0.3-0.2-1-0.2-1.4,0
		c-0.7,0.3-1.4,0.1-2.1,0.1c-0.7,0-1.5-0.2-2.1,0.3c-0.7-0.5-1.6-0.1-2.3-0.2c-0.7-0.1-1.5-0.1-2.2-0.1c-0.9,0-1.7-0.3-2.6-0.1
		c-0.2,0.1-0.4,0.1-0.6,0.2c-0.1-0.1-0.2-0.2-0.3-0.2c0,0,0,0.1-0.1,0.1c0.1,0,0.2,0.1,0.3,0.1C147.8,71.4,148.4,71.3,148.9,71.4z
		 M158.7,69.8c1-0.1,2.1-0.2,3.1,0.1c0.3,0.1,0.6,0,0.9,0.4c0.3,0.5,0.8,0.1,1.1-0.1c0.1-0.1,0.1-0.2,0.1-0.4
		c-0.1-0.1-0.2-0.2-0.3-0.2c-1.2,0.1-2.3-0.5-3.5-0.3c-0.7,0.1-1.4-0.4-2.1,0C158.2,69.6,158.2,69.9,158.7,69.8z M155.4,67.3
		c0.1,0.1,0.6-0.6,0.6-0.6c-0.6,0-0.2-0.8-0.7-0.7c-0.8,0.1-1.5-0.1-2.3,0.4C153.8,66.6,154.8,66.4,155.4,67.3z M148.7,65.8
		c1.9,0.7,1.9,0.7,3.6,0.3C151.2,65.8,150,65.7,148.7,65.8z M151.2,65c-0.9-0.8-2-0.7-3.1-0.3C149.1,65.1,150.2,64.6,151.2,65z
		 M161.8,74.2c-0.9-0.7-1.4-0.8-2.6-0.3C160,74,160.9,74.1,161.8,74.2z M157.2,65.8c0.1,0.5,0.6,0.3,1,0.3c0.2,0,0.5-0.1,0.4-0.4
		c-0.1-0.4-0.4-0.4-0.7-0.3C157.7,65.7,157.1,65.2,157.2,65.8z M148.4,61.7c-0.8-0.1-1.1,0.4-1.6,0.5
		C147.3,62.3,147.8,62.2,148.4,61.7z M158.9,67.1c-0.7-0.3-1-0.1-1.4,0C157.9,67.5,158.3,67.5,158.9,67.1z M140.6,62
		c0,0,0.1-0.2,0.1-0.2c-0.1-0.2-0.2-0.2-0.4-0.2c-0.1,0-0.1,0.1-0.1,0.2C140.3,62,140.5,62.1,140.6,62z M152.1,65
		c0,0.1,0.1,0.2,0.2,0.1c0,0,0.1-0.1,0.1-0.2c0,0-0.1-0.1-0.2-0.1C152.2,64.9,152.1,64.9,152.1,65z M160.3,72.3c0,0,0.2,0.1,0.3,0.1
		c0.1,0,0.2-0.1,0.2-0.1c0-0.2-0.2-0.1-0.3-0.1C160.5,72.2,160.3,72.1,160.3,72.3z M146.4,70.5c-0.1,0-0.2,0.1-0.1,0.2
		c0,0,0.1,0.1,0.2,0.1c0,0,0.1-0.1,0.1-0.2C146.5,70.5,146.4,70.5,146.4,70.5z M153.3,65.1c0.1,0,0.1,0.1,0.2,0.1
		c0.1,0,0.1-0.1,0.2-0.1c-0.1,0-0.1-0.1-0.2-0.1C153.4,65,153.3,65.1,153.3,65.1z"/>
	<path fill="#FBFBFB" d="M209.2,70.9c-0.3-0.1-0.7-0.2-0.8-0.5c0-0.2,0.2-0.5-0.1-0.5c-0.8,0-1.6,0.1-2.6,0.1
		c0.9,0.8,1.8,0.3,2.5,0.4c-0.8,0.4-1.6,0.6-2.4,1.2c-0.2,0-0.4,0-0.5-0.2c0-0.1,0-0.1,0-0.2c0.1,0,0.2,0,0.3-0.1
		c0.1,0,0.3,0,0.3-0.2c-0.1,0-0.2-0.1-0.3-0.1c-0.2-0.5-0.5-0.8-1.2-0.7c-0.7,0.1-1.5,0.1-2.3,0.1c-0.7,0-1.2-0.1-1.6-0.8
		c0.2-0.3,0.6-0.3,0.9-0.3c0.2,0,0.4,0.3,0.5-0.1c0.1-0.3,0-0.4-0.4-0.6c-0.7-0.3-1.4-0.3-2.1-0.2c-0.5,0-1.1,0-1.6,0
		c0.5-0.2,0.9-0.5,1.6-0.4c0.6,0.1,0.8-0.2,0.7-0.8c0,0,0.2-0.1,0.3-0.2c0.5,0.3,0.9,0.9,1.5,1c0.3,0.1,0.9,0.4,1.1,0.1
		c0.3-0.8,1-0.9,1.6-1.2c0.1,0,0.1-0.2,0.1-0.4c0,0,0,0,0,0c1,0.4,1.6,1.3,2.5,1.8c1,0.6,1.7,1.5,2.3,2.5
		C209.4,70.6,209.3,70.8,209.2,70.9z M202.4,68.2c-0.1,0-0.2,0.2-0.2,0.3c0.1,0.2,0.2,0.4,0.5,0.3c0.1,0,0.2-0.2,0.2-0.4
		C202.8,68.3,202.7,68.2,202.4,68.2z M204.4,68.5c-0.4-0.2-0.8-0.2-1,0.3C203.8,69,204.2,69,204.4,68.5z M205.3,68.4
		c-0.1,0-0.1,0.1,0,0.1c0,0,0.1,0,0.1,0C205.4,68.5,205.4,68.5,205.3,68.4C205.4,68.4,205.4,68.4,205.3,68.4z"/>
	<path fill="#FBFBFB" d="M192.7,59.3c0.5-0.1,1,0.1,1.5,0.3c-0.1,0.5-0.6,0.6-0.7,0.9c0,0,0.1,0.1,0.1,0.1c0.7-0.1,1.4-0.2,1.9,0.4
		c0-0.2,0.1-0.5,0.3-0.5c0.6,0,1.2,0.2,1.8,0.2c-0.8,0.7-1.5,0.2-2.2,0.2c0,0.4-0.2,0.5-0.5,0.6c0.3,0.3,0.7,0.5,1,0.5
		c1.4-0.2,2.7,0.2,4.1,0.1c-0.6-1.1-1.8-1.4-2.8-1.9c-2.3-0.9-4.4-2-6.8-2.6c-0.5-0.1-1-0.3-1.5-0.4c-0.3,0.3-1,0.4-0.8,1.1
		c0.4,0.5,0.1,0.5-0.3,0.6l0,0c0,0.1,0,0.2,0,0.3c0.6,0,1.2,0.1,1.7-0.4c0.2-0.3,0.7-0.3,0.9,0.1c0.2,0.6,0.7,0.4,1.1,0.5
		C191.9,59.3,192.3,59.3,192.7,59.3z"/>
	<path fill="#FBFBFB" d="M191.5,59.8c-1,0-2,0.1-3.1,0.1c-1.6,0.1-3.2,0.4-4.7,0.7c-1,0.2-2,0.3-3,0.2c0,0.3,0,0.6,0,0.9
		c2.2,0.1,4.3-0.4,6.4-0.8c1.4-0.2,2.7-0.3,4.1-0.6c0.1,0,0.3-0.1,0.4,0c0.4,0.5,0.6,0.2,0.8-0.2c0.1-0.1,0.2-0.3,0.3-0.4
		C192.3,59.8,191.9,59.8,191.5,59.8z"/>
	<path fill="#CB9833" d="M181.8,63.2c0.1,0.2,0.1,0.4,0.3,0.4c0.8,0,1.6,0.4,2.4,0.5c0-0.1,0.1-0.1,0.1-0.1c0,0-0.1,0-0.1,0.1
		c0.1,0.2,0.3,0.4,0.6,0.5c1.6,0.5,3,1.3,4.5,2c0.4,0.2,0.7,0.5,1.1,0.1c-0.1-0.6-1-0.3-1.1-0.9l0,0c-1.1-0.7-2.3-1.2-3.5-1.7
		c-0.1,0-0.2-0.2-0.3-0.3l0,0c-0.3,0-0.6,0.1-0.8-0.2c-0.5-0.3-1-0.2-1.5-0.2c-0.4,0-0.9,0.2-1.2-0.2c0,0-0.1-0.1-0.1-0.1
		C182.2,63.2,182,63.2,181.8,63.2z"/>
	<path fill="#CB9833" d="M209.2,70.9c-0.3-0.1-0.7-0.2-0.8-0.5c-0.1,0-0.2,0-0.3,0c-0.8,0.4-1.6,0.6-2.4,1.2
		c0.4,0.2,0.8,0.6,1.3,0.5c0-0.4,0.3-0.6,0.7-0.6C208.3,71.4,208.8,71.3,209.2,70.9z"/>
	<path fill="#FBFBFB" d="M209.9,70.3c-0.1,0.1-0.2,0.2-0.2,0.3c0.1,0.2,0.3,0.3,0.4,0.1C210.3,70.5,210.1,70.3,209.9,70.3z"/>
	<path fill="#EAD5AC" d="M90.1,62.8c0.2,0.2,0.4,0.1,0.6,0C90.5,62.6,90.3,62.6,90.1,62.8z"/>
	<path fill="#EEEFEB" d="M111,65.9C111,65.9,110.9,66,111,65.9c0,0.2,0,0.2,0.1,0.2C111.1,66,111.1,66,111,65.9
		C111.1,65.9,111,65.9,111,65.9z"/>
	<path fill="#EEEFEB" d="M169.1,76.3c0-0.2-0.1-0.4-0.3-0.5C168.8,76.1,168.9,76.2,169.1,76.3z"/>
	<path fill="#FBFBFB" d="M182.8,60c0.1,0.2,0.2,0.2,0.3,0C183,59.9,182.9,59.9,182.8,60z"/>
	<path fill="#EEEFEB" d="M110.3,69.8c0.1,0.2,0.2,0.2,0.3,0C110.4,69.8,110.3,69.7,110.3,69.8z"/>
	<path fill="#EEEFEB" d="M120.7,77.3c-0.1-0.1-0.1-0.2-0.3-0.2C120.5,77.2,120.6,77.2,120.7,77.3z"/>
	<path fill="#EEEFEB" d="M168.6,75.5c0.1-0.2,0-0.2-0.2-0.3c0,0.1,0,0.2,0,0.3C168.6,75.5,168.6,75.5,168.6,75.5z"/>
	<path fill="#C7C8C4" d="M155.6,74c0.3-0.1,0.5-0.2,0.5-0.6C155.8,73.5,155.1,73.3,155.6,74z"/>
	<path fill="#EAD5AC" d="M140.2,61.9c0.1,0.2,0.3,0.2,0.4,0.2c0,0,0.1-0.2,0.1-0.2c-0.1-0.2-0.2-0.2-0.4-0.2
		C140.2,61.7,140.2,61.8,140.2,61.9z"/>
	<path fill="#EEEFEB" d="M152.2,64.8c0,0.1-0.1,0.1-0.1,0.2c0,0.1,0.1,0.2,0.2,0.1c0,0,0.1-0.1,0.1-0.2
		C152.4,64.9,152.3,64.9,152.2,64.8z"/>
	<path fill="#C7C8C4" d="M163.7,75.4c0.1,0.3,0.3,0.3,0.6,0.3c0.1,0,0.3,0,0.2-0.2c0-0.1-0.2-0.1-0.3-0.2
		C164,75.4,163.8,75.4,163.7,75.4z"/>
	<path fill="#EAD5AC" d="M146.5,70.6c-0.1,0-0.1-0.1-0.2-0.1c-0.1,0-0.2,0.1-0.1,0.2c0,0,0.1,0.1,0.2,0.1
		C146.5,70.8,146.5,70.6,146.5,70.6z"/>
	<path fill="#EEEFEB" d="M153.5,65c-0.1,0-0.1,0.1-0.2,0.1c0.1,0,0.1,0.1,0.2,0.1c0.1,0,0.1-0.1,0.2-0.1C153.6,65,153.5,65,153.5,65
		z"/>
	<path fill="#EEEFEB" d="M146,67.5c-0.3,0-0.6-0.1-0.8,0.3C145.5,67.7,145.8,67.7,146,67.5z"/>
	<path fill="#EEEFEB" d="M147.5,70.8c-0.1-0.1-0.2-0.2-0.3-0.2c0,0,0,0.1-0.1,0.1C147.2,70.8,147.3,70.8,147.5,70.8L147.5,70.8z"/>
	<path fill="#986633" d="M136,64.9c-0.1-0.2-0.3-0.2-0.6-0.2c0,0,0,0,0,0C135.5,64.9,135.7,64.9,136,64.9L136,64.9z"/>
	<path fill="#EEEFEB" d="M156,65.4c0,0,0.1-0.1,0.1-0.1C156.1,65.3,156.1,65.3,156,65.4L156,65.4z"/>
	<path fill="#EEEFEB" d="M156,65.4c0,0-0.1,0.1-0.1,0.1C156,65.5,156,65.4,156,65.4L156,65.4z"/>
	<path fill="#EEEFEB" d="M158.3,75.2c0.1,0.2,0.2,0.2,0.3,0C158.5,75.2,158.4,75.2,158.3,75.2z"/>
	<path fill="#EEEFEB" d="M150.5,73.6c0,0.1,0.1,0.2,0.2,0.3C150.7,73.8,150.6,73.7,150.5,73.6z"/>
	<path fill="#FBFBFB" d="M115.6,70.6c-0.2,0.2-0.4,0.6-0.8,0.5c-1-0.2-1.9,0.1-2.9,0.1c-0.4,0-0.7,0-0.8-0.5c-1,0.1-2.1-0.1-3-0.3
		c-1.7-0.4-3.5-0.4-5.2-0.7c-0.3-0.1-0.5,0-0.7,0.3c1.3,0.2,2.6,0.6,4,0.8c1.5,0.2,2.8,1,4.2,1.4c0.3,0.1,0.6,0.2,0.9,0.2
		c1.3-0.1,2.5,0.5,3.7,0.7c0.7,0.1,1.4,0.4,2.1,0.6c0.2-0.6-0.5-0.8-0.4-1.3c-0.1,0-0.2-0.1-0.1-0.1c0,0,0,0.1,0.1,0.1
		c0.1,0,0.2,0,0.3,0c-0.1-0.5-0.3-0.8-0.8-0.8c-0.1,0.1,0.1,0.4-0.2,0.3c-0.1,0,0.1-0.2,0.2-0.3C116.2,71.2,115.8,71,115.6,70.6z"/>
	<path fill="#CB9833" d="M116.7,76.1c-0.1-0.5-0.5-0.5-0.9-0.5C115.9,76.2,116.3,76.2,116.7,76.1z"/>
	<path fill="#EEEFEB" d="M169.6,75.5c0.3,1.7,1.9,3.4,3.3,3.5c-0.4-0.9-1.1-1.2-1.7-1.8C170.6,76.7,170.3,75.9,169.6,75.5
		L169.6,75.5z"/>
	<path fill="#EEEFEB" d="M169.3,75.2c0-0.5-0.3-0.8-0.9-1.3C168.7,74.6,168.8,75,169.3,75.2L169.3,75.2z"/>
	<path fill="#EEEFEB" d="M169.3,75.2c0,0.2,0.1,0.2,0.3,0.2c0,0,0,0,0,0C169.5,75.3,169.5,75.2,169.3,75.2
		C169.3,75.2,169.3,75.2,169.3,75.2z"/>
	<path fill="#FFFFFF" d="M103.7,67.1c1.3-0.1,2.6,0.4,3.9,0.5c0.8,0.1,1.6,0,2.5,0c-0.2-0.5-0.8-0.4-0.9-0.8c-0.7,0.5-1.4,0.1-2,0
		c-1.1-0.2-2.2-0.2-3.2-0.4c-0.1,0-0.3,0-0.4,0.1C103,66.7,103.6,66.9,103.7,67.1z"/>
	<path fill="#EAD5AC" d="M101.8,66.6c-0.9-0.4-0.9-0.4-1.7-0.3C100.6,66.8,101.1,66.7,101.8,66.6z"/>
	<path fill="#FFFFFF" d="M92.8,65c0.1,0,0.1,0.1,0.2,0.1c0.1,0,0.2,0,0.3-0.1c0,0-0.1-0.1-0.2-0.1C93,64.9,92.9,65,92.8,65z"/>
	<path fill="#FFFFFF" d="M102.6,66.6c-0.1-0.1-0.2-0.2-0.3-0.2c0,0-0.1,0.1-0.1,0.1C102.3,66.7,102.5,66.7,102.6,66.6L102.6,66.6z"
		/>
	<path fill="#FFFFFF" d="M102.6,66.6c0.1,0,0.1,0.1,0.2,0.1C102.7,66.7,102.7,66.6,102.6,66.6C102.6,66.6,102.6,66.6,102.6,66.6z"/>
	<path fill="#FBFBFB" d="M192.2,65.7c0.1,0,0.3-0.1,0.3-0.2c0.1-0.2,0-0.4-0.2-0.4c-0.4-0.2-0.9-0.3-1.4-0.5c-0.1,0-0.2,0-0.3,0
		c0.1,0.8-1,0.6-1,1.3c-1.1-0.7-2.3-1.2-3.5-1.7c-0.1,0-0.2-0.2-0.3-0.3c0.2,0,0.3-0.1,0.5-0.1c0.6,0.1,1.2-0.1,1.8,0.2
		c0.3,0.1,0.6-0.1,0.9-0.2c0.3,0.9,0.4,1,1.1,0.5c0.2-0.1,0.3-0.1,0.5-0.1c0.6,0,1.2,0,1.8-0.2c0.2-0.1,0.4-0.1,0.5-0.1
		c2.2,0.2,4.3-0.3,6.4-0.7c0.1,0,0.2-0.1,0.3,0c0.7,0.7,1.6,0.6,2.4,0.6c1.1,0.6,1.8,1.6,2.5,2.5c0,0,0,0,0,0
		c-1.4,0.1-2.9,0.1-4.3-0.1c-1.5,0.1-2.9,0.1-4.4,0.2c-0.7,0-1.3-0.1-2-0.4c0.2-0.5,0.7-0.3,1-0.5c-0.5-0.5-1.1-0.5-1.7-0.4
		c-1,0.2,0.2,1.1-0.6,1.3c0.4,0.4,0.9,0.4,1.2,0.4c1,0,1.6,1,2.5,1.1c0.5,1.2,1.8,1.2,2.8,1.4c0.4,0.1,0.6,0.3,0.9,0.7
		c-0.6,0.2-1.1,0.1-1.7,0.2l0,0c-0.1-0.4-0.2-0.5-0.6-0.4c-0.4-0.1-0.8-0.1-1.2-0.3c-1.9-1-3.9-1.9-5.8-2.8c-0.1-0.6-1-0.3-1.1-0.9
		C190.6,65.7,191.4,65.7,192.2,65.7z M195.8,65.1c0.1,0,0.1,0.1,0.2,0.1c0.1,0,0.1-0.1,0.2-0.1c-0.1,0-0.1-0.1-0.2-0.1
		C195.9,65,195.8,65.1,195.8,65.1z"/>
	<path fill="#EEEFEB" d="M205.2,71.1c-0.4-0.2-0.7-0.3-1.1-0.5c-0.5-0.2-0.9-0.2-1.1,0.5c0.7-0.1,1.4,0.4,2.1,0.2
		C205.2,71.2,205.2,71.1,205.2,71.1z"/>
	<path fill="#FBFBFB" d="M200,62.1c0.1,0.9,0.2,0.9,0.9,0.5C200.7,62.1,200.4,62.1,200,62.1z"/>
	<path fill="#EAD5AC" d="M135.9,64.9c-0.2,0-0.4-0.1-0.5-0.3c-1.5-0.7-2.8-1.6-4.2-2.4c-0.9-0.5-1.8-1.1-2.8-1.3
		c-0.3,0.3,0,0.5,0,0.8c0.6,0,1,0.2,1.5,0.5c2,1.3,4.1,2.3,6,3.6c0.6,0.4,1.2,1,2,0.8c0.1-0.1,0.1,0.1,0.1,0c0.2-0.2,0.2-0.2,0-0.3
		C137.2,66.1,136.5,65.7,135.9,64.9z"/>
	<path fill="#EEEFEB" d="M135,61.2c-0.3-0.8-0.5-1-1-0.6c-0.3,0.2-0.6,0.3-0.9,0.5c0.3,0.2,0.7,0.2,0.9,0
		C134.4,60.5,134.6,61.2,135,61.2L135,61.2z"/>
	<path fill="#FBFBFB" d="M129.4,60.4c0,0-0.1,0-0.1,0c0,0.1,0,0.1,0.1,0.1c0,0,0.1-0.1,0.1-0.1C129.4,60.5,129.4,60.5,129.4,60.4z"
		/>
	<path fill="#EEEFEB" d="M135,61.2c0.1,0,0.1,0.1,0.2,0.1C135.1,61.3,135.1,61.2,135,61.2L135,61.2z"/>
	<path fill="#FFFFFF" d="M156,76.6c0.1,0.1,0.2,0.2,0.3,0.2c0.1,0,0.3,0,0.3-0.1c0,0-0.1-0.1-0.2-0.1
		C156.2,76.6,156.1,76.6,156,76.6L156,76.6z"/>
	<path fill="#FBFBFB" d="M156.7,75.2c0,0,0.1-0.1,0.1-0.1C156.8,75.2,156.8,75.2,156.7,75.2L156.7,75.2z"/>
	<path fill="#FFFFFF" d="M156,76.6c0,0-0.1-0.1-0.1-0.1C155.9,76.5,155.9,76.6,156,76.6C155.9,76.6,155.9,76.6,156,76.6L156,76.6z"
		/>
	<path fill="#EEEFEB" d="M205.5,70.7c0,0.1,0,0.2,0,0.3c0.1,0,0.3,0,0.3-0.2C205.7,70.8,205.6,70.8,205.5,70.7z"/>
	<path fill="#EEEFEB" d="M205.4,68.4C205.4,68.4,205.4,68.4,205.4,68.4c-0.2,0-0.2,0.1-0.1,0.1C205.3,68.5,205.4,68.5,205.4,68.4
		C205.4,68.5,205.4,68.5,205.4,68.4z"/>
	<path fill="#EEEFEB" d="M139.6,68c0-0.8-0.6-0.8-1.2-0.8C138.7,67.5,139,68,139.6,68z"/>
	<path fill="#EEEFEB" d="M140.1,68.5c0.2-0.5,0.2-0.5-0.6-0.5C139.6,68.3,139.9,68.4,140.1,68.5z"/>
	<path fill="#AEACAA" d="M117.5,76.1c0.1,0.1,0.2,0.2,0.3,0.2l0,0c0-0.1,0-0.1,0-0.2C117.6,76.1,117.6,76.1,117.5,76.1z"/>
	<polygon fill="#FFFFFF" points="101.9,69.7 101.8,69.7 101.8,69.8 	"/>
	<g>
		<path fill="#986633" d="M87.6,65.4c0.8,1.2,1.9,1.9,3.1,2.6c3,1.4,6.2,2,9.3,2.7c3.8,0.9,7.6,1.7,11.2,3.3
			c1.3,0.6,2.9,1.1,3.8,2.5c0.2,0.3,0.7,0.5,1.1,0.7c0.8,0.3,1.1,1.2,2,1.4c0-0.5,0.1-1-0.5-1.3c-0.4-0.2-0.3-0.7-0.4-1.2
			c-0.2,0-0.3,0-0.5,0c-0.4,0.1-0.8,0.1-0.9-0.5c-0.2-0.3-0.6-0.3-0.9-0.4c-1.2-0.6-2-1.8-3.3-2.2c-0.1,0-0.1-0.4-0.2-0.6
			c-0.3,0-0.6-0.1-0.9-0.2c-1.4-0.4-2.8-1.1-4.2-1.4c-1.3-0.2-2.7-0.6-4-0.8c-0.4,0-0.8,0.2-1.1-0.2c-1.4-0.3-2.8-0.6-4.3-0.9
			c-2.8-0.7-5.5-1.6-7.8-3.4c-0.5-0.4-1-0.7-1.3-1.3C87.4,64.7,87.6,65.1,87.6,65.4z"/>
		<path fill="#986633" d="M155.2,61.8c-0.3-0.2-0.7-0.4-1-0.5c-0.5-0.2-0.4,0.3-0.5,0.5c-0.4,0-0.8,0.1-1.2,0
			c-0.6-0.2-1.3-0.1-1.5-0.9c0.6,0,1.2,0,1.7-0.1c1.5-0.1,2.8,0.3,4,1.1c1.8,1.1,3.5,2.4,5.2,3.6c2.2,1.5,3.9,3.4,5.3,5.6
			c0.8,1.3,1.8,2.5,2.9,3.5c0.5,0.4,1,0.7,1.1,1.4c0.1,0.7,0.6,1.2,1.1,1.6c1.2,1,2.6,1.6,4.2,1.9c0.3,0,0.7,0,0.7,0.4
			c0,0.5-0.5,0.4-0.8,0.4c-0.1,0-0.2,0-0.3-0.1c-0.7-0.2-1.3-0.2-2.1-0.3c-1.1,0-2.2-0.2-3.2-1.1c-0.8-0.7-1.3-1.7-2-2.5
			c0-0.2-0.1-0.4-0.3-0.5c0-0.1-0.1-0.2-0.1-0.3c0.1-0.2,0-0.2-0.2-0.3c-0.6-1.2-1.2-2.4-2.1-3.3c0-0.2,0-0.4-0.3-0.5
			c-0.1-1-0.9-1.6-1.5-2.2c-2.6-2.7-5.5-5.1-9.1-6.4c-0.2-0.1-0.4-0.2-0.4-0.4C155.2,62.2,155.5,62,155.2,61.8z M168.4,73.9
			c0.2,0.7,0.4,1.1,0.9,1.3c0,0.2,0.1,0.2,0.3,0.2c0.3,1.7,1.9,3.4,3.3,3.5c-0.4-0.9-1.1-1.2-1.7-1.8c-0.6-0.5-0.9-1.3-1.6-1.7
			c0-0.2-0.1-0.2-0.3-0.3C169.3,74.7,169,74.4,168.4,73.9z"/>
		<path fill="#986633" d="M181.8,63.2c-1-0.1-2-0.1-3-0.2c-0.4,0-0.7,0-1.1,0c-0.2,0-0.4,0.2-0.5,0.4c0,0.3,0.2,0.5,0.5,0.6
			c0.4,0,0.8,0,1.2,0c0.3,0,0.5,0,0.8,0c1.1,0,1.1,0.1,0.8,1.1c0.3,0.3,0.6,0.1,0.9,0.1c2.9-0.2,5.6,0.7,8.2,2
			c1.9,1,3.7,1.9,5.6,2.7c1.9,0.8,3.9,1.4,5.9,1.8c1,0.2,2.1-0.1,3.2,0.2c0.6,0.2,1.2,0.2,1.8,0.4c0.5,0.1,0.9,0.1,1.2-0.3
			c0,0,0-0.1,0-0.1c-0.1,0-0.2-0.1-0.2-0.1c-0.5,0.1-0.9-0.3-1.3-0.5c-0.2,0-0.4,0-0.5-0.2c-0.7,0.2-1.4-0.3-2.1-0.2
			c-1.7,0.5-3.2,0.1-4.6-0.8l0,0c-0.3,0-0.5-0.1-0.6-0.4c-0.4-0.1-0.8-0.1-1.2-0.3c-1.9-1-3.9-1.9-5.8-2.8c-0.4,0.4-0.8,0.1-1.1-0.1
			c-1.5-0.7-3-1.5-4.5-2c-0.3-0.1-0.5-0.2-0.6-0.5l0,0c-0.8-0.1-1.6-0.5-2.4-0.5C182,63.6,181.9,63.4,181.8,63.2z"/>
		<path fill="#986633" d="M148.9,74.3c0.3-0.1,0.5-0.2,0.8-0.2c0.3,0,0.3-0.2,0.3-0.4c-1.9-0.8-3.9-1.5-5.5-2.9
			c-0.4-0.3-0.9-0.6-1.3-0.8c-1.1-0.3-2.1-0.7-3-1.5c-0.2-0.1-0.5-0.2-0.6-0.5l0,0c-0.5,0-0.8-0.4-1.2-0.8c-0.3,0-0.4-0.2-0.5-0.5
			c-0.8,0.1-1.4-0.4-2-0.8c-1.9-1.4-4-2.4-6-3.6c-0.4-0.3-0.9-0.5-1.5-0.5c-0.4,0-0.8,0.1-0.8,0.6c3,0.9,5.7,2.6,8.3,4.3
			c2.2,1.4,4.4,2.8,6.6,4.1C144.6,72,146.7,73.1,148.9,74.3z"/>
		<path fill="#986633" d="M155.1,62.3c0.2-0.1,0.4-0.3,0.1-0.5c-0.3-0.2-0.7-0.4-1-0.5c-0.5-0.2-0.4,0.3-0.5,0.5
			C154.2,61.9,154.6,62.1,155.1,62.3z"/>
		<path fill="#986633" d="M188.5,62.7c-1.3,0.1-2.7,0.1-4,0.2c0,0-0.1,0-0.1,0c-0.1,0.2-0.3,0.2-0.4,0c-0.1,0-0.2,0-0.2,0
			c-0.1,0-0.1,0-0.2,0c-0.4,0-0.8,0.1-1.1,0.4c0.3,0.4,0.8,0.2,1.2,0.2c0.5,0,1,0,1.5,0.2c0.3,0,0.6-0.2,0.8,0.2l0,0
			c0.2,0,0.3-0.1,0.5-0.1c0.1-0.5,0.3-0.6,0.8-0.6C187.7,63.2,188.3,63.5,188.5,62.7z"/>
	</g>
	<path fill="#EEEFEB" d="M183.5,62.8c0.1,0,0.1,0,0.2,0C183.7,62.7,183.6,62.7,183.5,62.8C183.5,62.7,183.5,62.8,183.5,62.8z"/>
	<path fill="#EEEFEB" d="M183.9,62.8c0.1,0.2,0.3,0.2,0.4,0C184.2,62.8,184.1,62.8,183.9,62.8z"/>
	<path fill="#FFFFFF" d="M187.8,58.9c-0.2,0.1-0.2,0.2,0,0.3C187.8,59.1,187.8,59,187.8,58.9z"/>
	<path fill="#FBFBFB" d="M185.9,63.8c-0.2-0.4-0.5-0.2-0.8-0.2C185.3,63.9,185.6,63.8,185.9,63.8z"/>
	<path fill="#AEACAA" d="M184.6,64.1C184.6,64.1,184.7,64.1,184.6,64.1C184.7,64,184.6,64,184.6,64.1L184.6,64.1z"/>
	<path fill="#EEEFEB" d="M117.7,76.4c0,0.2,0.1,0.4,0.3,0.5l0,0C118,76.7,118,76.5,117.7,76.4L117.7,76.4z"/>
	<path fill="#EEEFEB" d="M118,76.9c0.1,0,0.1,0.1,0.2,0.1C118.1,77,118.1,76.9,118,76.9C118.1,76.9,118,76.9,118,76.9z"/>
	<path fill="#EEEFEB" d="M116.2,71.6c-0.1,0.1-0.3,0.3-0.2,0.3C116.3,72,116.1,71.7,116.2,71.6L116.2,71.6z"/>
	<path fill="#EEEFEB" d="M116.8,72.4c0,0-0.1-0.1-0.1-0.1C116.6,72.3,116.6,72.4,116.8,72.4L116.8,72.4z"/>
	<g>
		<path fill="#EAD5AC" d="M111.4,72.4c0.1,0.2,0.1,0.5,0.2,0.6c1.3,0.5,2.1,1.6,3.3,2.2c0.3,0.2,0.7,0.1,0.9,0.4
			c0.4,0,0.8,0,0.9,0.5c0.2,0,0.3,0,0.5,0c0.1,0,0.2,0,0.3,0c0.1,0,0.2,0,0.2,0c0.7-0.3,1.3,0.3,2,0.3c0.2,0,0.1,0.3-0.1,0.5
			c0.2,0.2,0.4,0.2,0.6,0.2c0.1-1,0.9-0.2,1.3-0.8c0,0.5,0,0.8,0,1.1c0.5,0.7,0.9,0.7,1.3-0.1c-0.4-0.4-0.8-0.8-1.2-1.2
			c-0.5-0.5-1.2-0.6-1.8-0.8c-0.2,0-0.4-0.1-0.4-0.2c-0.4-1.2-1.5-1.8-2.4-2.6c-0.1,0-0.2,0-0.3,0l0,0c-0.1,0.5,0.6,0.7,0.4,1.3
			c-0.7-0.2-1.4-0.4-2.1-0.6C113.8,72.9,112.7,72.3,111.4,72.4z"/>
		<path fill="#EAD5AC" d="M162.8,74.7c0.7-0.2,0.7-0.2,0.9,0.7c0.1,0.3,0.3,0.3,0.6,0.3c0.1,0,0.3,0,0.2-0.2c0-0.1-0.2-0.1-0.3-0.2
			c0-0.4-0.2-0.8,0.2-1.2c0.3,0,0.7,0.1,1,0.1c0.8-0.1,1,0.4,1,1c-0.3,0-0.6,0-0.9,0c-0.4,0-0.3,0.3-0.2,0.5
			c0.4,0.4,0.9,0.4,1.4,0.5c0.4,0,1,0,0.8,0.5c-0.1,0.5-0.6,0.3-1,0.1c-0.7-0.3-1.3-0.5-2,0c-0.1-0.2-0.1-0.6-0.2-0.6
			c-0.8,0.3-1.5,0-2.3,0.1c-1.2,0.1-2.4-0.1-3.7-0.5c1-0.2,1.4-0.7,1.2-1.5C160.5,74.8,162,74.9,162.8,74.7z M160,75.8
			c1.2,0.1,2.3,0.3,3.5,0.4C163.1,75.4,162.7,75.3,160,75.8z"/>
		<path fill="#EAD5AC" d="M109.3,66.1c0,0.2,0,0.5,0,0.7c0.1,0.4,0.7,0.3,0.9,0.8c-0.9,0-1.7,0-2.5,0c-1.3-0.1-2.6-0.6-3.9-0.5
			c0,0.2,0,0.4,0,0.5c0.7,0.3,1.5,0.5,2.3,0.5c1.2,0,2.3,0.4,3.3,0.7c0.9,0.3,1.7,0.2,2.5,0.1c0.1-0.6-0.7-0.4-0.5-0.9
			c0.2-0.6,0.7-0.2,1.1-0.3c-0.5-0.5-0.5-1.3-1.6-1C110.4,66.8,109.8,66.4,109.3,66.1z"/>
		<path fill="#EAD5AC" d="M111.6,70c0.1,0.4-0.4,0.5-0.5,0.8c0.1,0.5,0.4,0.5,0.8,0.5c1,0,1.9-0.3,2.9-0.1c0.4,0.1,0.6-0.3,0.8-0.5
			c-0.2-0.4-0.5-0.8-0.8-1.1c-0.6,0.8-1.2,1.2-2.2,0.5C112.3,69.8,111.9,70,111.6,70z"/>
		<path fill="#EAD5AC" d="M113.9,68.5c-0.3,0-0.6-0.1-0.9-0.1c-0.2,0-0.4,0.2-0.4,0.5c0,0.3,0.1,0.4,0.4,0.5
			C113.7,69.6,113.9,69.4,113.9,68.5L113.9,68.5z"/>
		<path fill="#EAD5AC" d="M187.3,58.4c0.2,0.2,0.3,0.3,0.5,0.5c0.4,0,0.7-0.1,0.3-0.6C187.8,58.4,187.5,58.4,187.3,58.4z"/>
		<path fill="#EAD5AC" d="M147.4,70.8c0.4,0.5,0.9,0.5,1.5,0.6c1,0.2,2,0.5,2.9,0.7c0.5,0.1,1,0.3,1.2-0.3c0.1-0.1,0.1-0.1,0.3,0
			c0.9,0.7,1.9,0.9,3,0.3c0.8,0.6,1.8-0.3,2.5,0.3c0.1,0.1,0.4,0.1,0.5-0.1c0.1-0.2-0.1-0.7,0.3-0.6c0.6,0.1,1.2-0.2,1.8-0.1
			c1.1,0.3,2.3,0.1,3.4,0c0-0.4-0.3-0.5-0.6-0.5c-1.2,0-2.3,0-3.5-0.5c-0.3-0.2-1-0.2-1.4,0c-0.7,0.3-1.4,0.1-2.1,0.1
			c-0.7,0-1.5-0.2-2.1,0.3c-0.7-0.5-1.6-0.1-2.3-0.2c-0.7-0.1-1.5-0.1-2.2-0.1c-0.9,0-1.7-0.3-2.6-0.1
			C147.9,70.6,147.7,70.7,147.4,70.8L147.4,70.8z"/>
		<path fill="#EAD5AC" d="M158,69.4c0.1,0.3,0.2,0.5,0.6,0.4c1-0.1,2.1-0.2,3.1,0.1c0.3,0.1,0.6,0,0.9,0.4c0.3,0.5,0.8,0.1,1.1-0.1
			c0.1-0.1,0.1-0.2,0.1-0.4c-0.1-0.1-0.2-0.2-0.3-0.2c-1.2,0.1-2.3-0.5-3.5-0.3C159.4,69.5,158.7,69,158,69.4z"/>
		<path fill="#EAD5AC" d="M147.3,67.1c0,0.2,0.1,0.4,0.1,0.5c1.1,0.1,2.2,0.6,3.4,0.3c0-1.1-0.1-1.2-1-0.8c-0.2,0.1-0.3,0.4-0.5,0.2
			C148.6,66.8,147.9,67.1,147.3,67.1z"/>
		<path fill="#EAD5AC" d="M155.6,74.2c0.5,0.4,1.1,0.3,1.6,0.3c0.3-0.4,0.7-0.3,1.1-0.3c0.2,0,0.4-0.1,0.4-0.3
			c0-0.3-0.2-0.4-0.4-0.4c-0.7-0.1-1.5,0-2.2,0.1c0.1,0.4-0.2,0.5-0.5,0.6C155.6,74,155.6,74.1,155.6,74.2z"/>
		<path fill="#EAD5AC" d="M153,66.3c0.8,0.3,1.8,0.1,2.4,1c0.1,0.1,0.6-0.6,0.6-0.6c-0.6,0-0.2-0.8-0.7-0.7
			C154.5,66,153.7,65.9,153,66.3z"/>
		<path fill="#EAD5AC" d="M152.3,66.1c-1.2-0.3-2.4-0.4-3.6-0.3C150.6,66.5,150.6,66.5,152.3,66.1z"/>
		<path fill="#EAD5AC" d="M148.1,64.6c1,0.5,2.1,0,3.1,0.3C150.3,64.2,149.2,64.3,148.1,64.6z"/>
		<path fill="#EAD5AC" d="M159.2,73.9c0.8,0.1,1.7,0.2,2.6,0.3C160.9,73.5,160.4,73.4,159.2,73.9z"/>
		<path fill="#EAD5AC" d="M157.9,65.4c-0.2,0.2-0.8-0.2-0.7,0.3c0.1,0.5,0.6,0.3,1,0.3c0.2,0,0.5-0.1,0.4-0.4
			C158.5,65.3,158.2,65.3,157.9,65.4z"/>
		<path fill="#EAD5AC" d="M146.6,64.4c0,0.1,0,0.2,0,0.3c0,0,0.1,0.1,0.1,0.1c0.4,0.1,0.6-0.1,0.8-0.3c0.1-0.1,0.1-0.3-0.1-0.3
			C147.1,64.1,146.9,64.1,146.6,64.4z"/>
		<path fill="#EAD5AC" d="M157.6,67.1c0.4,0.4,0.8,0.3,1.4,0C158.3,66.9,157.9,67.1,157.6,67.1z"/>
		<path fill="#EAD5AC" d="M166.4,71.9c0-0.2,0-0.4-0.3-0.5c-0.2,0-0.6,0-0.5,0.2C165.6,72,166.1,71.9,166.4,71.9z"/>
		<path fill="#EAD5AC" d="M160.6,72.1c-0.1,0-0.3,0-0.3,0.2c0,0,0.2,0.1,0.3,0.1c0.1,0,0.2-0.1,0.2-0.1
			C160.8,72.1,160.7,72.1,160.6,72.1z"/>
		<path fill="#EAD5AC" d="M198.5,70.2c-0.1-0.4-0.2-0.5-0.6-0.4C198,70.1,198.2,70.2,198.5,70.2z"/>
		<path fill="#EAD5AC" d="M189,63.3c0.8,0,1.3-1.1,2.3-0.6c0.3,0.1,0.8,0.1,1.1-0.2c-1.1-0.7-2-0.7-3.9,0.1c-1.3,0.1-2.7,0.1-4,0.2
			c0-0.5,0.4-0.5,0.7-0.6c0.6-0.2,1.2-0.1,1.8-0.2c1.5-0.4,3-0.7,4.5-0.8c0.7-0.1,1.3-0.2,1.9-0.7c0,0,0.1,0.1,0.1,0.1
			c0.1,0.2,0.1,0.5,0.4,0.4c0.5-0.1,0.7,0.3,1,0.5c0.3,0.3,0.7,0.5,1,0.5c1.4-0.2,2.7,0.2,4.1,0.1l0,0c0.1,0.9,0.2,0.9,0.9,0.5
			c0.7,0.1,0.8,0.8,1.3,1.1c-0.9,0-1.8,0.1-2.4-0.6c-0.1-0.1-0.2,0-0.3,0c-2.1,0.4-4.2,1-6.4,0.7c-0.2,0-0.4,0-0.5,0.1
			c-0.6,0.3-1.2,0.3-1.8,0.2c-0.2,0-0.3,0-0.5,0.1c-0.7,0.5-0.8,0.4-1.1-0.5C189.1,63.6,189,63.5,189,63.3z M193.9,62.1
			c-0.3,0.1-0.6-0.1-0.8,0.1c0,0,0,0.2,0,0.2c0.3,0.1,0.6,0,0.9-0.2C194,62.1,194,62.1,193.9,62.1z"/>
		<path fill="#EAD5AC" d="M200.4,66.2c0,0.2,0,0.3,0,0.5c0.5,0.3,0.9,0.9,1.5,1c0.3,0.1,0.9,0.4,1.1,0.1c0.3-0.8,1-0.9,1.6-1.2
			c0.1,0,0.1-0.2,0.1-0.4C203.3,66.3,201.8,66.3,200.4,66.2z"/>
		<path fill="#EAD5AC" d="M208.1,70.3c0.1,0,0.2,0,0.3,0c0-0.2,0.2-0.5-0.1-0.5c-0.8,0-1.6,0.1-2.6,0.1
			C206.6,70.7,207.4,70.3,208.1,70.3z"/>
		<path fill="#EAD5AC" d="M202.9,68.5c-0.1-0.2-0.2-0.3-0.5-0.3c-0.1,0-0.2,0.2-0.2,0.3c0.1,0.2,0.2,0.4,0.5,0.3
			C202.9,68.8,202.9,68.7,202.9,68.5z"/>
		<path fill="#EAD5AC" d="M203.4,68.8c0.4,0.2,0.8,0.2,1-0.3C204,68.3,203.6,68.3,203.4,68.8z"/>
		<path fill="#EAD5AC" d="M191.5,59.8c0.4,0,0.8,0,1.2,0c0-0.2,0-0.3,0-0.5c-0.4,0-0.8,0-1.2,0.1C191.5,59.5,191.5,59.6,191.5,59.8z
			"/>
		<path fill="#EAD5AC" d="M189.7,65.8c0.8,0,1.7-0.1,2.5-0.1c0.1,0,0.3-0.1,0.3-0.2c0.1-0.2,0-0.4-0.2-0.4c-0.4-0.2-0.9-0.3-1.4-0.5
			c-0.1,0-0.2,0-0.3,0C190.8,65.3,189.7,65.1,189.7,65.8L189.7,65.8z"/>
	</g>
	<path fill="#EAD5AC" d="M196,65c-0.1,0-0.1,0.1-0.2,0.1c0.1,0,0.1,0.1,0.2,0.1c0.1,0,0.1-0.1,0.2-0.1C196.1,65.1,196,65,196,65z"/>
	<path fill="#FBFBFB" d="M195.7,67.1c1.3,0.6,2.5,0,3.8,0.1C198.9,66.6,197,66.6,195.7,67.1z"/>
	<path fill="#986633" d="M194,62.2c0-0.1-0.1-0.1-0.1-0.1c-0.3,0.1-0.6-0.1-0.8,0.1c0,0,0,0.2,0,0.2C193.5,62.6,193.8,62.4,194,62.2
		z"/>
	<path fill="#314682" d="M1.6,0h8.5c0.7,2.4,1.6,5.4,2.8,9.1c1.2,3.7,2.1,6.7,2.8,9c0.7,2.3,1,3.5,1.1,3.5s1-3,2.8-8.9
		C21.2,6.8,22.4,2.6,23,0h8.3c0.2,0.4,0.2,0.8,0.2,1.2c0,0.3-0.1,0.6-0.2,0.7c-0.1,0.1-0.4,0.2-0.7,0.2h-1.4
		c-0.1,2.5,0,6.7,0.1,12.4c0.1,5.7,0.3,9.6,0.4,11.5h2c0.2,0.4,0.3,0.8,0.3,1.2c0,0.3-0.1,0.6-0.2,0.7c-0.1,0.1-0.4,0.2-0.7,0.2H23
		c-0.2-0.5-0.3-0.9-0.3-1.3c0-0.3,0.1-0.5,0.2-0.6c0.1-0.1,0.4-0.2,0.7-0.2h1.2c0.1-2.4,0.1-9.6-0.1-21.8c-1.1,4.1-2.3,8.3-3.7,12.6
		c-1.4,4.3-2.3,6.8-2.8,7.6c-0.5,0.8-1.2,1.2-2.2,1.2c-1.5,0-2.3-0.1-2.4-0.2c-0.2-0.1-1.1-2.5-2.8-7.2C9.2,13.5,7.8,8.8,6.5,4.1
		c0,12.2,0,19.5,0.1,21.9h1.9c0.2,0.4,0.2,0.8,0.2,1.2c0,0.3-0.1,0.6-0.2,0.7c-0.1,0.1-0.4,0.2-0.7,0.2H0.2C0.1,27.6,0,27.2,0,26.8
		c0-0.3,0.1-0.5,0.2-0.6C0.4,26,0.6,26,0.9,26h1.5c0.2-1.9,0.3-5.7,0.4-11.5C3,8.8,3,4.6,3,2.1H0.9C0.8,1.7,0.7,1.2,0.7,0.8
		c0-0.3,0.1-0.5,0.2-0.6C1,0.1,1.3,0,1.6,0z"/>
	<path fill="#314682" stroke="#314682" stroke-width="1.15" stroke-miterlimit="10" d="M44.7,26.4c-0.9,0.5-1.9,0.9-2.8,1.2
		S40,28,39.1,28c-1.5,0-2.6-0.3-3.3-1c-0.7-0.7-1.1-1.7-1.1-3.1c0-1.7,0.6-2.9,1.8-3.8c1.2-0.9,3-1.3,5.5-1.3h2.4
		c-0.1-1.9-0.3-3.3-0.8-4c-0.5-0.8-1.3-1.1-2.6-1.1c-0.7,0-1.3,0.1-1.9,0.2c-0.3,0.6-0.5,1-0.6,1c-0.1,0-0.4,0.1-0.9,0.3
		s-1,0.1-1.2-0.1c-0.2-0.2-0.5-0.6-0.7-1.1c-0.2-0.5-0.4-1-0.4-1.3c0-0.2,0.1-0.4,0.3-0.5c0.2-0.1,0.9-0.3,2.2-0.4
		c1.3-0.2,2.7-0.3,4.1-0.3c1.9,0,3.4,0.3,4.3,1c0.9,0.7,1.4,1.9,1.4,3.7v5c0,2.3,0.1,3.8,0.3,4.3c0.2,0.5,0.5,0.7,1,0.6
		c0.1,0.2,0.2,0.5,0.2,0.7c0,0.4-0.2,0.7-0.7,0.9c-0.5,0.2-1.1,0.3-1.9,0.3c-0.4,0-0.7,0-0.9-0.1C45.5,27.6,45.2,27.2,44.7,26.4z
		 M44.4,20.8c-0.9-0.2-1.9-0.2-2.9-0.2c-1.2,0-2.1,0.2-2.6,0.6c-0.5,0.4-0.7,1.1-0.7,2c0,0.9,0.2,1.5,0.7,2s1.1,0.7,2.1,0.7
		c0.7,0,1.4-0.1,2-0.4c0.6-0.3,1-0.7,1.2-1.2c0.2-0.5,0.3-1.3,0.3-2.4V20.8z"/>
	<path fill="#314682" d="M61.9,2.1h-2.4c-0.2-0.5-0.2-0.9-0.2-1.3c0-0.3,0.1-0.5,0.2-0.6C59.6,0.1,59.8,0,60.2,0h8.2
		c5.1,0,8.6,0.6,10.4,1.9c1.8,1.3,2.7,3.3,2.7,6.2c0,3-1.1,5.3-3.2,6.9s-5.7,2.5-10.6,2.5h-1c0,4.2,0.1,7,0.2,8.5h3.1
		c0.2,0.4,0.2,0.8,0.2,1.2c0,0.3-0.1,0.6-0.2,0.7c-0.1,0.1-0.4,0.2-0.7,0.2h-9.9c-0.2-0.5-0.3-0.9-0.3-1.3c0-0.3,0.1-0.5,0.2-0.6
		C59.4,26,59.7,26,60,26h1.9C62,24.1,62,19.2,62,11.3C62,7.1,62,4,61.9,2.1z M68.2,14.9c3,0,5.1-0.4,6.3-1.3s1.8-2.3,1.8-4.4
		c0-2-0.6-3.5-1.7-4.6c-1.1-1.1-3-1.6-5.6-1.6c-0.9,0-1.6,0.1-2.3,0.2c-0.1,1.2-0.2,4-0.2,8.3v3.4H68.2z"/>
	<path fill="#314682" stroke="#314682" stroke-width="1.15" stroke-miterlimit="10" d="M89.6,11.6c2,0,3.4,0.5,4.4,1.4
		c0.9,0.9,1.4,2.5,1.4,4.6c0,0.9-0.2,1.6-0.5,2c-0.3,0.4-1.1,0.6-2.2,0.6h-7c0,1.7,0.4,3.1,1,4c0.7,1,1.9,1.5,3.5,1.5
		c1.6,0,3.1-0.4,4.4-1.2c0.5,0.5,0.7,0.9,0.7,1.4c0,0.7-0.6,1.2-1.7,1.5s-2.5,0.4-3.9,0.4c-2.7,0-4.6-0.6-5.8-1.7
		c-1.2-1.1-1.8-3.1-1.8-5.8c0-2.7,0.7-4.8,2-6.3C85.4,12.3,87.2,11.6,89.6,11.6z M89,13.7c-1.1,0-1.9,0.4-2.4,1.1
		c-0.5,0.8-0.8,1.9-0.9,3.5h1.6c1.7,0,2.9,0,3.5-0.1c0.6-0.1,1-0.2,1.1-0.3c0.1-0.2,0.2-0.5,0.2-0.9c0-1-0.3-1.9-0.8-2.5
		C90.8,14,90,13.7,89,13.7z"/>
	<path fill="#314682" stroke="#314682" stroke-width="1.15" stroke-miterlimit="10" d="M99,12h1.1l1.3-4.5c0.4,0.1,0.8,0.3,1.1,0.5
		c0.3,0.2,0.5,0.4,0.7,0.7c0.1,0.3,0.2,1.2,0.2,2.7V12h5.2c0.1,0.3,0.2,0.7,0.2,1.1c0,0.3-0.1,0.5-0.2,0.6c-0.1,0.1-0.3,0.2-0.7,0.2
		h-4.5v7.5c0,1.8,0.2,3,0.5,3.5c0.3,0.6,0.8,0.9,1.5,0.9s1.5-0.2,2.4-0.6c0.2,0.3,0.3,0.7,0.3,1.1c0,0.6-0.3,0.9-0.9,1.1
		s-1.6,0.3-2.9,0.3c-1.4,0-2.5-0.3-3.2-0.9c-0.7-0.6-1-1.7-1-3.3v-3.7c0-2-0.1-4-0.2-5.9h-1.5c-0.1-0.4-0.2-0.7-0.2-1.1
		c0-0.3,0.1-0.5,0.2-0.6C98.5,12,98.7,12,99,12z"/>
	<path fill="#314682" stroke="#314682" stroke-width="1.15" stroke-miterlimit="10" d="M116.2,25.8h1.7c0.1,0.3,0.2,0.6,0.2,0.9
		c0,0.3-0.1,0.5-0.2,0.6c-0.1,0.1-0.3,0.2-0.7,0.2H111c-0.1-0.3-0.2-0.7-0.2-0.9c0-0.2,0.1-0.4,0.2-0.5s0.3-0.2,0.6-0.2h1.2
		c0.1-1.5,0.1-3.2,0.1-5.2c0-2.4,0-4-0.1-4.8c0-0.8-0.1-1.4-0.3-1.7c-0.1-0.3-0.3-0.5-0.6-0.6c-0.2-0.1-0.6-0.1-0.9-0.1
		c-0.1-0.2-0.2-0.5-0.2-0.8c0-0.4,0.2-0.7,0.6-0.8c0.4-0.1,1.2-0.1,2.4-0.1c0.8,0,1.4,0,1.7,0.1c0.3,0.1,0.5,0.2,0.5,0.4
		c0,0.2,0.1,0.6,0.1,1.1v7.2C116.1,22.6,116.1,24.4,116.2,25.8z M114,9.1c-0.7,0-1.2-0.1-1.5-0.4C112.1,8.4,112,8,112,7.4
		c0-0.6,0.2-1,0.6-1.4c0.4-0.3,1-0.5,1.7-0.5c0.7,0,1.3,0.2,1.6,0.5c0.3,0.3,0.5,0.7,0.5,1.2c0,0.6-0.2,1-0.6,1.4
		C115.4,8.9,114.8,9.1,114,9.1z"/>
	<path fill="#314682" stroke="#314682" stroke-width="1.15" stroke-miterlimit="10" d="M121.3,12h1.1l1.3-4.5
		c0.4,0.1,0.8,0.3,1.1,0.5c0.3,0.2,0.5,0.4,0.7,0.7c0.1,0.3,0.2,1.2,0.2,2.7V12h5.2c0.1,0.3,0.2,0.7,0.2,1.1c0,0.3-0.1,0.5-0.2,0.6
		c-0.1,0.1-0.3,0.2-0.7,0.2h-4.5v7.5c0,1.8,0.2,3,0.5,3.5c0.3,0.6,0.8,0.9,1.5,0.9s1.5-0.2,2.4-0.6c0.2,0.3,0.3,0.7,0.3,1.1
		c0,0.6-0.3,0.9-0.9,1.1c-0.6,0.2-1.6,0.3-2.9,0.3c-1.4,0-2.5-0.3-3.2-0.9c-0.7-0.6-1-1.7-1-3.3v-3.7c0-2-0.1-4-0.2-5.9h-1.5
		c-0.1-0.4-0.2-0.7-0.2-1.1c0-0.3,0.1-0.5,0.2-0.6C120.8,12,121,12,121.3,12z"/>
	<path fill="#314682" stroke="#314682" stroke-width="1.15" stroke-miterlimit="10" d="M140.8,11.6c2,0,3.4,0.5,4.4,1.4
		c0.9,0.9,1.4,2.5,1.4,4.6c0,0.9-0.2,1.6-0.5,2c-0.3,0.4-1.1,0.6-2.2,0.6h-7c0,1.7,0.4,3.1,1,4c0.7,1,1.9,1.5,3.5,1.5
		c1.6,0,3.1-0.4,4.4-1.2c0.5,0.5,0.7,0.9,0.7,1.4c0,0.7-0.6,1.2-1.7,1.5c-1.2,0.3-2.5,0.4-3.9,0.4c-2.7,0-4.6-0.6-5.8-1.7
		c-1.2-1.1-1.8-3.1-1.8-5.8c0-2.7,0.7-4.8,2-6.3C136.6,12.3,138.5,11.6,140.8,11.6z M140.2,13.7c-1.1,0-1.9,0.4-2.4,1.1
		c-0.5,0.8-0.8,1.9-0.9,3.5h1.6c1.7,0,2.9,0,3.5-0.1c0.6-0.1,1-0.2,1.1-0.3c0.1-0.2,0.2-0.5,0.2-0.9c0-1-0.3-1.9-0.8-2.5
		C142,14,141.2,13.7,140.2,13.7z"/>
	<path fill="#314682" d="M158.6,0h9.2c3.8,0,6.6,0.5,8.4,1.6c1.8,1.1,2.7,2.7,2.7,4.8c0,3.3-2,5.6-5.9,7.1c4.8,0.7,7.2,2.9,7.2,6.6
		c0,2.4-1,4.4-2.9,5.8c-1.9,1.5-5.4,2.2-10.2,2.2l-9.1,0c-0.2-0.5-0.3-0.9-0.3-1.3c0-0.3,0.1-0.5,0.2-0.6c0.1-0.1,0.4-0.2,0.7-0.2
		h1.5c0.1-1.9,0.1-6.1,0.1-12.4c0-5.7,0-9.5-0.1-11.4h-2.2c-0.2-0.5-0.3-0.9-0.3-1.3c0-0.3,0.1-0.5,0.2-0.6C158,0.1,158.3,0,158.6,0
		z M164.8,12.1c0.8,0.1,1.7,0.2,2.7,0.2c2.2,0,3.9-0.4,4.9-1.2c1-0.8,1.5-1.9,1.5-3.5c0-1.6-0.5-2.8-1.5-3.5c-1-0.7-2.5-1.1-4.6-1.1
		c-1,0-1.9,0.1-2.8,0.2C164.9,5,164.9,8,164.8,12.1z M164.8,15.1V20c0,2.4,0.2,3.9,0.5,4.4s1.6,0.7,3.8,0.7c2.1,0,3.7-0.4,4.6-1.1
		c0.9-0.7,1.4-1.9,1.4-3.5c0-1.8-0.6-3.1-1.8-4.1c-1.2-1-3-1.4-5.4-1.4C166.9,14.9,165.8,15,164.8,15.1z"/>
	<path fill="#314682" stroke="#314682" stroke-width="1.15" stroke-miterlimit="10" d="M193.3,26.2c-1,0.6-1.9,1-2.9,1.3
		s-2,0.4-3,0.4c-1.5,0-2.7-0.4-3.4-1.1c-0.8-0.7-1.1-1.8-1.1-3.2c0-1.7,0.6-3.1,1.9-4s3.2-1.4,5.7-1.4h2.5c-0.1-2-0.4-3.4-0.9-4.2
		c-0.5-0.8-1.4-1.2-2.7-1.2c-0.7,0-1.3,0.1-2,0.2c-0.3,0.7-0.5,1-0.6,1.1c-0.1,0-0.4,0.1-1,0.3c-0.6,0.2-1,0.1-1.2-0.1
		c-0.2-0.2-0.5-0.6-0.7-1.2c-0.2-0.6-0.4-1-0.4-1.3c0-0.2,0.1-0.4,0.3-0.5c0.2-0.1,1-0.3,2.3-0.5c1.3-0.2,2.8-0.3,4.3-0.3
		c2,0,3.5,0.3,4.5,1c1,0.7,1.4,2,1.4,3.8v5.3c0,2.4,0.1,3.9,0.3,4.4c0.2,0.5,0.6,0.8,1,0.6c0.1,0.3,0.2,0.5,0.2,0.7
		c0,0.4-0.2,0.7-0.7,0.9c-0.5,0.2-1.1,0.3-2,0.3c-0.4,0-0.7,0-0.9-0.1C194.1,27.5,193.8,27,193.3,26.2z M193,20.4
		c-1-0.2-2-0.3-3-0.3c-1.3,0-2.2,0.2-2.7,0.6c-0.5,0.4-0.8,1.1-0.8,2c0,0.9,0.2,1.6,0.7,2.1c0.5,0.5,1.2,0.7,2.1,0.7
		c0.8,0,1.4-0.1,2.1-0.4c0.6-0.3,1.1-0.7,1.3-1.2c0.2-0.5,0.3-1.4,0.3-2.5V20.4z"/>
	<path fill="#314682" stroke="#314682" stroke-width="1.15" stroke-miterlimit="10" d="M213.7,12.4c0.6,1.1,1,2.3,1,3.6
		c0,1.9-0.6,3.5-1.8,4.7c-1.2,1.2-3.2,1.8-5.8,1.8c-1.2,0-2,0.1-2.3,0.4c-0.4,0.3-0.5,0.6-0.5,1.1c0,0.6,0.2,1,0.7,1.3
		c0.5,0.3,2.2,0.4,5.2,0.4c3,0,4.9,0.3,5.8,0.9c0.9,0.6,1.3,1.5,1.3,2.7c0,1.8-0.9,3.2-2.8,4.3s-4.8,1.6-8.7,1.6
		c-1.9,0-3.2-0.3-3.8-0.8c-0.6-0.5-1-1.2-1-2.2c0-0.7,0.2-1.4,0.5-2.1c0.4-0.7,0.9-1.4,1.5-2.1c-0.6-0.2-1-0.6-1.3-1
		c-0.3-0.4-0.5-1-0.5-1.7c0-0.7,0.2-1.3,0.6-1.9c0.4-0.6,1.1-1.1,2-1.5c-0.7-0.3-1.3-0.8-1.8-1.6c-0.4-0.8-0.7-1.8-0.7-3
		c0-2,0.6-3.6,1.8-4.9s3.1-1.9,5.5-1.9c1.4,0,2.6,0.2,3.8,0.7c1.5-0.7,2.4-1,2.6-1c1.4,0,2.1,0,2.3,0.1c0.1,0.1,0.2,0.2,0.2,0.4
		c0,0.3-0.1,0.7-0.4,1.3c-0.3,0.6-0.5,0.8-0.8,0.8c-0.2,0-1-0.3-2.3-0.8L213.7,12.4z M205.1,28.1c-0.4,0.4-0.7,0.8-0.9,1.3
		c-0.2,0.5-0.3,1-0.3,1.5c0,0.8,0.2,1.3,0.7,1.7s1.4,0.5,2.8,0.5c2,0,3.6-0.2,4.6-0.7c1-0.5,1.6-1.2,1.6-2.1c0-0.8-0.4-1.4-1.1-1.7
		C211.7,28.2,209.3,28.1,205.1,28.1z M207.9,12.4c-1.1,0-1.9,0.3-2.4,0.9c-0.5,0.6-0.8,1.7-0.8,3.3c0,1.4,0.3,2.4,0.8,3
		c0.5,0.6,1.3,0.9,2.4,0.9c1.1,0,2-0.3,2.5-0.8c0.5-0.6,0.8-1.6,0.8-3.2c0-1.4-0.3-2.4-0.8-3.1C209.8,12.7,209,12.4,207.9,12.4z"/>
	<path fill="#314682" stroke="#314682" stroke-width="1.15" stroke-miterlimit="10" d="M234.1,20.7c0,2.3,0.1,3.7,0.3,4.2
		c0.2,0.5,0.5,0.8,1.1,0.7c0.1,0.3,0.2,0.5,0.2,0.8c0,0.4-0.3,0.7-1,1c-0.6,0.2-1.3,0.3-1.9,0.3c-0.4,0-0.7-0.1-0.9-0.2
		c-0.2-0.2-0.5-0.6-0.9-1.3c-0.9,0.5-1.8,0.9-2.8,1.2s-2,0.5-3.1,0.5c-1.4,0-2.5-0.4-3.3-1.2c-0.8-0.8-1.2-2.2-1.2-4.3
		c0-4.1,0-6.5-0.1-7.4c0-0.9-0.1-1.5-0.3-1.8c-0.1-0.3-0.3-0.5-0.6-0.6c-0.2-0.1-0.5-0.1-0.8-0.1c-0.1-0.2-0.2-0.5-0.2-0.8
		c0-0.4,0.3-0.7,0.8-0.8c0.6-0.1,1.3-0.2,2.3-0.2c0.8,0,1.3,0,1.6,0.1c0.3,0.1,0.5,0.3,0.5,0.5s0.1,1,0.1,2.2V20
		c0,2.3,0.3,3.9,0.8,4.6c0.5,0.7,1.2,1.1,2.2,1.1c0.6,0,1.3-0.1,1.9-0.4c0.6-0.3,1-0.7,1.2-1.1c0.2-0.5,0.3-1.4,0.3-2.8
		c0-3.2,0-5.3,0-6.1c0-0.8-0.1-1.4-0.2-1.8c-0.1-0.4-0.3-0.6-0.5-0.7c-0.2-0.1-0.5-0.1-0.8-0.1c-0.1-0.2-0.2-0.5-0.2-0.8
		c0-0.4,0.3-0.7,0.9-0.8c0.6-0.1,1.3-0.2,2.2-0.2c0.8,0,1.3,0,1.6,0.1c0.3,0.1,0.5,0.3,0.5,0.5c0.1,0.3,0.1,1,0.1,2.3V20.7z"/>
	<path fill="#314682" stroke="#314682" stroke-width="1.15" stroke-miterlimit="10" d="M246.7,10.4c2.1,0,3.7,0.5,4.7,1.5
		c1,1,1.5,2.6,1.5,4.9c0,1-0.2,1.7-0.5,2.1c-0.4,0.4-1.2,0.6-2.4,0.6h-7.5c0,1.9,0.4,3.3,1.1,4.4c0.7,1.1,2,1.6,3.8,1.6
		c1.7,0,3.3-0.4,4.8-1.3c0.5,0.5,0.7,1,0.7,1.6c0,0.8-0.6,1.3-1.9,1.6c-1.3,0.3-2.7,0.5-4.3,0.5c-2.9,0-5-0.6-6.3-1.8
		c-1.3-1.2-1.9-3.3-1.9-6.2c0-2.9,0.7-5.1,2.1-6.8C242.2,11.2,244.2,10.4,246.7,10.4z M246.1,12.7c-1.1,0-2,0.4-2.6,1.2
		c-0.6,0.8-0.9,2.1-1,3.8h1.8c1.9,0,3.1,0,3.8-0.1c0.7-0.1,1.1-0.2,1.2-0.4c0.1-0.2,0.2-0.5,0.2-1c0-1.1-0.3-2-0.9-2.6
		C248,13,247.2,12.7,246.1,12.7z"/>
	<path fill="#314682" stroke="#314682" stroke-width="1.15" stroke-miterlimit="10" d="M256.8,10.8h1.2l1.4-4.8
		c0.5,0.1,0.9,0.3,1.2,0.5s0.6,0.4,0.7,0.7c0.2,0.3,0.2,1.2,0.2,2.9v0.7h5.6c0.1,0.4,0.2,0.8,0.2,1.2c0,0.3-0.1,0.5-0.2,0.7
		c-0.1,0.1-0.4,0.2-0.8,0.2h-4.9v8.1c0,1.9,0.2,3.2,0.5,3.8c0.4,0.6,0.9,0.9,1.6,1c0.7,0,1.6-0.2,2.6-0.7c0.3,0.4,0.4,0.8,0.4,1.2
		c0,0.6-0.3,1-1,1.2c-0.7,0.2-1.7,0.3-3.1,0.3c-1.6,0-2.7-0.3-3.4-1c-0.7-0.6-1.1-1.8-1.1-3.6v-4c0-2.2-0.1-4.3-0.2-6.3h-1.7
		c-0.1-0.4-0.2-0.8-0.2-1.2c0-0.3,0.1-0.5,0.2-0.6C256.3,10.9,256.6,10.8,256.8,10.8z"/>
	<path fill="#314682" stroke="#314682" stroke-width="1.15" stroke-miterlimit="10" d="M270.5,10.8h1.2l1.4-4.8
		c0.5,0.1,0.9,0.3,1.2,0.5c0.3,0.2,0.6,0.4,0.7,0.7c0.2,0.3,0.2,1.2,0.2,2.9v0.7h5.6c0.1,0.4,0.2,0.8,0.2,1.2c0,0.3-0.1,0.5-0.2,0.7
		c-0.1,0.1-0.4,0.2-0.8,0.2h-4.9v8.1c0,1.9,0.2,3.2,0.5,3.8c0.4,0.6,0.9,0.9,1.6,1c0.7,0,1.6-0.2,2.6-0.7c0.2,0.4,0.4,0.8,0.4,1.2
		c0,0.6-0.3,1-1,1.2c-0.7,0.2-1.7,0.3-3.1,0.3c-1.6,0-2.7-0.3-3.4-1c-0.7-0.6-1.1-1.8-1.1-3.6v-4c0-2.2-0.1-4.3-0.2-6.3h-1.7
		c-0.1-0.4-0.2-0.8-0.2-1.2c0-0.3,0.1-0.5,0.2-0.6C270,10.9,270.2,10.8,270.5,10.8z"/>
	<path fill="#314682" stroke="#314682" stroke-width="1.15" stroke-miterlimit="10" d="M291.6,10.4c2.1,0,3.7,0.5,4.7,1.5
		c1,1,1.5,2.6,1.5,4.9c0,1-0.2,1.7-0.5,2.1c-0.4,0.4-1.2,0.6-2.4,0.6h-7.5c0,1.9,0.4,3.3,1.1,4.4c0.7,1.1,2,1.6,3.8,1.6
		c1.7,0,3.3-0.4,4.8-1.3c0.5,0.5,0.7,1,0.7,1.6c0,0.8-0.6,1.3-1.9,1.6c-1.3,0.3-2.7,0.5-4.3,0.5c-2.9,0-5-0.6-6.3-1.8
		c-1.3-1.2-1.9-3.3-1.9-6.2c0-2.9,0.7-5.1,2.1-6.8C287.1,11.2,289,10.4,291.6,10.4z M290.9,12.7c-1.1,0-2,0.4-2.6,1.2
		c-0.6,0.8-0.9,2.1-1,3.8h1.8c1.9,0,3.1,0,3.8-0.1c0.7-0.1,1.1-0.2,1.2-0.4c0.1-0.2,0.2-0.5,0.2-1c0-1.1-0.3-2-0.9-2.6
		C292.9,13,292,12.7,290.9,12.7z"/>
	<path fill="none" stroke="#CB9833" stroke-width="2" stroke-miterlimit="10" d="M222.9,71.5c0,0-6.6,9.1-32.6,11.6
		c-5.9,0.6-10.3-0.7-10.3-0.7s-12.1-1.4-16.3-1.1s-6.4,1.9-11.8,2.6c-5.4,0.7-11.2-0.5-13.6-0.9c-2.4-0.4-4.2-1.5-9.3-2
		c-1.6-0.2-9.2,0.5-11.1,0.9s-4.6,1.5-6.9,1.4c-2.3,0-5.8-0.6-8.2-0.5c-2.4,0.1-10.1,0.7-11.5,0.6c-1.4-0.1-6.1-0.2-12.3-2.1
		s-10.6-5.4-11-11.6c-0.3-4.4,4.4-8.4,4.4-8.4s1.6-1.4,4.7-2.9c2.8-1.4,4.5-1.1,6-1.3c4.7-0.7,7.4,0,8.5,0.2
		c3.1,0.5,2.1,0.6,4.9-0.2c1.9-0.5,4.8-1.5,6.8-1.6c2.1-0.1,5-0.5,7.9-0.1c2.9,0.4,3.6,0.8,5.6,0.8c0.9,0,8.6-2.7,12.3-2.7
		c5,0,6.6,0.3,10.5,0.6c3.9,0.2,10.7-0.7,12.6-1.2c1.9-0.6,6.1,0,8.2,0.2c2.1,0.2,6.2,1,8.6,1.2c2.4,0.2,10.7-1.3,14-1.9
		c3.3-0.5,9.6-0.7,13-0.5s13,1.7,15.2,2.5c3.3,1.2,10.3,3.8,11.9,4.7c2.7,1.7,2.3,3.8,2.6,6.5S222.9,71.5,222.9,71.5z"/>
</g>
</svg>
