<?xml version="1.0" encoding="utf-8"?>
<!-- Generator: Adobe Illustrator 18.1.1, SVG Export Plug-In . SVG Version: 6.00 Build 0)  -->
<svg version="1.1" id="Layer_1" xmlns="http://www.w3.org/2000/svg" xmlns:xlink="http://www.w3.org/1999/xlink" x="0px" y="0px"
	 viewBox="0 0 29 29" enable-background="new 0 0 29 29" xml:space="preserve">
<g>
	<circle fill="#FF9999" cx="14.5" cy="14.5" r="14.5"/>
	<path fill="#FFFFFF" d="M17.9,8c0.3,0,0.5,0,0.8,0c0.1,0,0.2,0,0.3,0.1c0.6,0.1,1.2,0.4,1.7,0.8c0.2,0.2,0.3,0.2,0.6,0.1
		c0.5-0.2,1-0.4,1.6-0.6c0.1,0,0.2-0.1,0.4-0.2c-0.2,0.4-0.3,0.8-0.6,1.1c-0.2,0.3-0.5,0.6-0.8,0.8c0.6-0.1,1.2-0.3,1.7-0.5
		c0,0.1-0.1,0.1-0.1,0.2c-0.4,0.5-0.8,1-1.3,1.4c-0.2,0.2-0.3,0.3-0.3,0.6c0,1.5-0.3,2.9-0.9,4.3c-0.7,1.6-1.8,3-3.3,4
		c-2,1.5-4.3,1.9-6.8,1.8c-1.5-0.1-2.8-0.6-4.1-1.3c-0.1-0.1-0.2-0.1-0.3-0.2c0,0,0,0,0-0.1c1.9,0.1,3.5-0.3,5.1-1.4
		c-0.8-0.1-1.4-0.3-2-0.7c-0.6-0.4-1-1-1.2-1.7c0.3,0,0.5,0,0.7,0c0.2,0,0.5,0,0.7-0.1c0,0,0,0,0-0.1c-0.8-0.2-1.5-0.6-1.9-1.3
		c-0.5-0.6-0.8-1.4-0.7-2.2c0.5,0.2,1,0.4,1.5,0.4c-0.7-0.6-1.2-1.2-1.4-2.1c-0.2-0.9-0.1-1.7,0.4-2.6c1.9,2.2,4.3,3.5,7.3,3.7
		c0-0.1,0-0.2,0-0.2c-0.2-1.9,0.7-3.2,2-3.8C17.2,8.2,17.6,8.1,17.9,8z"/>
</g>
</svg>
