<?xml version="1.0" encoding="utf-8"?>
<!-- Generator: Adobe Illustrator 18.1.1, SVG Export Plug-In . SVG Version: 6.00 Build 0)  -->
<svg version="1.1" id="Layer_1" xmlns="http://www.w3.org/2000/svg" xmlns:xlink="http://www.w3.org/1999/xlink" x="0px" y="0px"
	 viewBox="0 0 29 29" enable-background="new 0 0 29 29" xml:space="preserve">
<g>
	<circle fill="#FF9999" cx="14.5" cy="14.5" r="14.5"/>
	<g>
		<path fill="#FFFFFF" d="M7.9,8.8c0-0.1,0-0.2,0.1-0.2c0.2-0.8,1-1.3,1.8-1.2c0.8,0.1,1.4,0.8,1.4,1.7c0,0.8-0.7,1.5-1.5,1.6
			c-0.9,0.1-1.6-0.5-1.7-1.4c0,0,0-0.1,0-0.1C7.9,9,7.9,8.9,7.9,8.8z"/>
		<path fill="#FFFFFF" d="M13.5,21.7c0-3.2,0-6.4,0-9.7c0.9,0,1.9,0,2.8,0c0,0.5,0,1,0,1.5c0.3-0.2,0.5-0.4,0.7-0.6
			c1.2-0.9,2.6-1,4-0.5c1,0.4,1.4,1.2,1.5,2.2c0,0.2,0,0.5,0,0.7c0,2.1,0,4.1,0,6.2c0,0.1,0,0.1,0,0.2c-1,0-1.9,0-2.9,0
			c0,0,0-0.1,0-0.2c0-1.6,0-3.3,0-4.9c0-0.2,0-0.5-0.1-0.7c-0.1-0.6-0.5-1-1.1-1.1c-0.4,0-0.8,0-1.2,0c-0.5,0.1-0.8,0.4-0.9,1
			c0,0.2,0,0.4,0,0.6c0,1.7,0,3.4,0,5c0,0.1,0,0.1,0,0.2C15.4,21.7,14.5,21.7,13.5,21.7z"/>
		<path fill="#FFFFFF" d="M8,12c1,0,2,0,2.9,0c0,3.2,0,6.4,0,9.7c-1,0-1.9,0-2.9,0C8,18.5,8,15.3,8,12z"/>
	</g>
</g>
</svg>
