<?xml version="1.0" encoding="utf-8"?>
<!-- Generator: Adobe Illustrator 18.1.1, SVG Export Plug-In . SVG Version: 6.00 Build 0)  -->
<svg version="1.1" id="Layer_1" xmlns="http://www.w3.org/2000/svg" xmlns:xlink="http://www.w3.org/1999/xlink" x="0px" y="0px"
	 viewBox="0 0 29 29" enable-background="new 0 0 29 29" xml:space="preserve">
<g>
	<circle fill="#FF9999" cx="14.5" cy="14.5" r="14.5"/>
	<g>
		<path fill="#FFFFFF" d="M7.5,12.1c0-0.2,0-0.4,0-0.6c0-0.1,0.1-0.2,0.1-0.3c0-0.3,0-0.7,0-1c0-0.6,0.2-1.2,0.6-1.7
			C8.3,8.4,8.5,8.2,8.6,8C8.7,9,8.7,9.8,8.7,10.7c0,0.3,0.1,0.4,0.3,0.4c0.3,0,0.4-0.1,0.4-0.4c0-0.9,0-1.9,0-2.8
			c0-0.2,0-0.3,0.3-0.3c0,0.1,0,0.2,0,0.4c0,0.9,0,1.8,0,2.8c0,0.3,0.2,0.3,0.4,0.3c0.2,0,0.3-0.1,0.3-0.3c0-1,0-2,0-2.9
			c0-0.1,0-0.2,0-0.2c0,0,0.1-0.1,0.1-0.1c0,0,0.1,0.1,0.1,0.1c0,0.1,0,0.1,0,0.2c0,1,0,2,0,3c0,0.1,0.1,0.2,0.1,0.3
			c0.4,0.2,0.6,0,0.6-0.4c0-0.9,0-1.9,0-2.8c0-0.4,0-0.4,0.4-0.4c2.5,0,4.9,0,7.4,0c1.3,0,2.6,1.1,2.7,2.4c0.1,0.7,0,1.3,0.1,2
			c0,0.2-0.1,0.3-0.3,0.3c-1.3,0-2.7,0-4,0c-0.1,0-0.3-0.1-0.4-0.2c-0.7-0.6-1.6-1-2.6-0.9c-0.9,0-1.7,0.4-2.4,0.9
			c-0.1,0.1-0.3,0.2-0.5,0.2c-1.3,0-2.6,0-3.9,0C7.7,12.1,7.6,12.1,7.5,12.1z M19.5,11.1C19.5,11.1,19.5,11.1,19.5,11.1
			c0.2,0,0.5,0,0.7,0c0.3,0,0.5-0.1,0.5-0.5c0-0.5,0-1.1,0-1.6c0-0.3-0.2-0.4-0.5-0.5c-0.3,0-0.6-0.1-0.9-0.1c-0.3,0-0.6,0-0.9,0.1
			c-0.1,0-0.2,0.2-0.3,0.4c-0.1,0.5-0.2,1.1,0,1.7c0.1,0.3,0.2,0.5,0.5,0.5C19,11.2,19.2,11.1,19.5,11.1z"/>
		<path fill="#FFFFFF" d="M11.6,12.7c-1,2.2-0.7,4,1.3,5.3c1.3,0.9,3.1,0.6,4.3-0.4c0.7-0.6,1.2-1.4,1.3-2.3
			c0.1-0.9-0.1-1.8-0.6-2.6c0.1,0,0.2,0,0.3,0c1.2,0,2.3,0,3.5,0c0.3,0,0.3,0.1,0.3,0.3c0,1.9,0,3.9,0,5.8c0,1-0.2,1.8-1,2.5
			c-0.5,0.4-1,0.6-1.7,0.6c-3,0-5.9,0-8.9,0c-1.1,0-2.2-0.8-2.6-1.8c-0.1-0.3-0.2-0.6-0.2-0.9c0-2,0-4.1,0-6.1c0-0.4,0-0.4,0.4-0.4
			c1.1,0,2.2,0,3.2,0C11.3,12.6,11.4,12.6,11.6,12.7z"/>
		<path fill="#FFFFFF" d="M17.5,14.8c0,1.6-1.2,2.8-2.8,2.8c-1.6,0-2.8-1.2-2.8-2.9c0-1.4,1.3-2.8,2.8-2.7
			C16.3,12,17.5,13.2,17.5,14.8z M14.7,12.6c-1.3,0.1-2.1,1.2-2.1,2.3c0,1.1,1.1,2.1,2.2,2.1c1.1,0,2.2-1.1,2.1-2.2
			C16.8,13.6,16.1,12.6,14.7,12.6z"/>
	</g>
</g>
</svg>
