<?xml version="1.0" encoding="utf-8"?>
<!-- Generator: Adobe Illustrator 18.1.1, SVG Export Plug-In . SVG Version: 6.00 Build 0)  -->
<svg version="1.1" id="Layer_1" xmlns="http://www.w3.org/2000/svg" xmlns:xlink="http://www.w3.org/1999/xlink" x="0px" y="0px"
	 viewBox="0 0 29 29" enable-background="new 0 0 29 29" xml:space="preserve">
<g>
	<circle fill="#FF9999" cx="14.5" cy="14.5" r="14.5"/>
	<path fill="#FFFFFF" d="M10.2,15.2c0-1,0-2,0-3c0,0,0,0,0,0c0.7,0,1.4,0,2.1,0c0,0,0,0,0,0c0,0,0,0,0,0c0-0.8,0-1.6,0-2.5
		c0-0.4,0-0.7,0.1-1c0.3-1,0.9-1.8,1.8-2.3c0.6-0.3,1.2-0.4,1.9-0.5c0.1,0,0.1,0,0.2,0c0.2,0,0.3,0,0.5,0c0,0,0,0,0,0
		c0.2,0,0.5,0,0.7,0c0.3,0,0.5,0,0.8,0.1c0.1,0,0.2,0,0.3,0c0,0.9,0,1.9-0.1,2.8c0,0,0,0,0,0c-0.6,0-1.2,0-1.9,0
		c-0.2,0-0.4,0-0.5,0.1c-0.3,0.1-0.5,0.3-0.6,0.6c0,0.2-0.1,0.4-0.1,0.6c0,0.7,0,1.4,0,2.1c0,0,0,0,0,0c1.1,0,2.1,0,3.2,0
		c0,1-0.1,2-0.1,3c-1,0-2,0-3.1,0c0,2.7,0,5.5,0,8.2c-1.1,0-2.1,0-3.2,0c0-2.7,0-5.4,0-8.2c0,0,0,0,0,0C11.7,15.2,11,15.2,10.2,15.2
		C10.2,15.2,10.2,15.2,10.2,15.2z"/>
</g>
</svg>
